<?xml version="1.0" encoding="utf-8"?>
<svg xmlns="http://www.w3.org/2000/svg" xmlns:xlink="http://www.w3.org/1999/xlink" width="720" height="380" viewBox="0 0 2880 1520">
<defs>
  <clipPath id="clip120">
    <rect x="0" y="0" width="2880" height="1520"/>
  </clipPath>
</defs>
<path clip-path="url(#clip120)" d="M0 1520 L2880 1520 L2880 0 L0 0  Z" fill="#ffffff" fill-rule="evenodd" fill-opacity="1"/>
<defs>
  <clipPath id="clip121">
    <rect x="220" y="97" width="2613" height="1291"/>
  </clipPath>
</defs>
<path clip-path="url(#clip120)" d="M220.449 1387.09 L2832.76 1387.09 L2832.76 97.1921 L220.449 97.1921  Z" fill="#ffffff" fill-rule="evenodd" fill-opacity="1"/>
<polyline clip-path="url(#clip121)" style="stroke:#000000; stroke-linecap:round; stroke-linejoin:round; stroke-width:2; stroke-opacity:0.18; fill:none" stroke-dasharray="1, 2" points="557.876,1387.09 557.876,97.1921 "/>
<polyline clip-path="url(#clip121)" style="stroke:#000000; stroke-linecap:round; stroke-linejoin:round; stroke-width:2; stroke-opacity:0.18; fill:none" stroke-dasharray="1, 2" points="1042.24,1387.09 1042.24,97.1921 "/>
<polyline clip-path="url(#clip121)" style="stroke:#000000; stroke-linecap:round; stroke-linejoin:round; stroke-width:2; stroke-opacity:0.18; fill:none" stroke-dasharray="1, 2" points="1526.6,1387.09 1526.6,97.1921 "/>
<polyline clip-path="url(#clip121)" style="stroke:#000000; stroke-linecap:round; stroke-linejoin:round; stroke-width:2; stroke-opacity:0.18; fill:none" stroke-dasharray="1, 2" points="2010.97,1387.09 2010.97,97.1921 "/>
<polyline clip-path="url(#clip121)" style="stroke:#000000; stroke-linecap:round; stroke-linejoin:round; stroke-width:2; stroke-opacity:0.18; fill:none" stroke-dasharray="1, 2" points="2495.33,1387.09 2495.33,97.1921 "/>
<polyline clip-path="url(#clip121)" style="stroke:#000000; stroke-linecap:round; stroke-linejoin:round; stroke-width:2; stroke-opacity:0.18; fill:none" stroke-dasharray="1, 2" points="557.876,1387.09 557.876,97.1921 "/>
<polyline clip-path="url(#clip121)" style="stroke:#000000; stroke-linecap:round; stroke-linejoin:round; stroke-width:2; stroke-opacity:0.18; fill:none" stroke-dasharray="1, 2" points="1042.24,1387.09 1042.24,97.1921 "/>
<polyline clip-path="url(#clip121)" style="stroke:#000000; stroke-linecap:round; stroke-linejoin:round; stroke-width:2; stroke-opacity:0.18; fill:none" stroke-dasharray="1, 2" points="1526.6,1387.09 1526.6,97.1921 "/>
<polyline clip-path="url(#clip121)" style="stroke:#000000; stroke-linecap:round; stroke-linejoin:round; stroke-width:2; stroke-opacity:0.18; fill:none" stroke-dasharray="1, 2" points="2010.97,1387.09 2010.97,97.1921 "/>
<polyline clip-path="url(#clip121)" style="stroke:#000000; stroke-linecap:round; stroke-linejoin:round; stroke-width:2; stroke-opacity:0.18; fill:none" stroke-dasharray="1, 2" points="2495.33,1387.09 2495.33,97.1921 "/>
<polyline clip-path="url(#clip121)" style="stroke:#000000; stroke-linecap:round; stroke-linejoin:round; stroke-width:2; stroke-opacity:0.18; fill:none" stroke-dasharray="1, 2" points="220.449,1387.09 2832.76,1387.09 "/>
<polyline clip-path="url(#clip121)" style="stroke:#000000; stroke-linecap:round; stroke-linejoin:round; stroke-width:2; stroke-opacity:0.18; fill:none" stroke-dasharray="1, 2" points="220.449,976.293 2832.76,976.293 "/>
<polyline clip-path="url(#clip121)" style="stroke:#000000; stroke-linecap:round; stroke-linejoin:round; stroke-width:2; stroke-opacity:0.18; fill:none" stroke-dasharray="1, 2" points="220.449,565.498 2832.76,565.498 "/>
<polyline clip-path="url(#clip121)" style="stroke:#000000; stroke-linecap:round; stroke-linejoin:round; stroke-width:2; stroke-opacity:0.18; fill:none" stroke-dasharray="1, 2" points="220.449,154.703 2832.76,154.703 "/>
<polyline clip-path="url(#clip121)" style="stroke:#000000; stroke-linecap:round; stroke-linejoin:round; stroke-width:2; stroke-opacity:0.18; fill:none" stroke-dasharray="1, 2" points="220.449,1387.09 2832.76,1387.09 "/>
<polyline clip-path="url(#clip121)" style="stroke:#000000; stroke-linecap:round; stroke-linejoin:round; stroke-width:2; stroke-opacity:0.18; fill:none" stroke-dasharray="1, 2" points="220.449,976.293 2832.76,976.293 "/>
<polyline clip-path="url(#clip121)" style="stroke:#000000; stroke-linecap:round; stroke-linejoin:round; stroke-width:2; stroke-opacity:0.18; fill:none" stroke-dasharray="1, 2" points="220.449,565.498 2832.76,565.498 "/>
<polyline clip-path="url(#clip121)" style="stroke:#000000; stroke-linecap:round; stroke-linejoin:round; stroke-width:2; stroke-opacity:0.18; fill:none" stroke-dasharray="1, 2" points="220.449,154.703 2832.76,154.703 "/>
<polyline clip-path="url(#clip120)" style="stroke:#000000; stroke-linecap:round; stroke-linejoin:round; stroke-width:4; stroke-opacity:1; fill:none" points="220.449,1387.09 2832.76,1387.09 "/>
<polyline clip-path="url(#clip120)" style="stroke:#000000; stroke-linecap:round; stroke-linejoin:round; stroke-width:4; stroke-opacity:1; fill:none" points="220.449,97.1921 2832.76,97.1921 "/>
<polyline clip-path="url(#clip120)" style="stroke:#000000; stroke-linecap:round; stroke-linejoin:round; stroke-width:4; stroke-opacity:1; fill:none" points="557.876,1387.09 557.876,1368.19 "/>
<polyline clip-path="url(#clip120)" style="stroke:#000000; stroke-linecap:round; stroke-linejoin:round; stroke-width:4; stroke-opacity:1; fill:none" points="1042.24,1387.09 1042.24,1368.19 "/>
<polyline clip-path="url(#clip120)" style="stroke:#000000; stroke-linecap:round; stroke-linejoin:round; stroke-width:4; stroke-opacity:1; fill:none" points="1526.6,1387.09 1526.6,1368.19 "/>
<polyline clip-path="url(#clip120)" style="stroke:#000000; stroke-linecap:round; stroke-linejoin:round; stroke-width:4; stroke-opacity:1; fill:none" points="2010.97,1387.09 2010.97,1368.19 "/>
<polyline clip-path="url(#clip120)" style="stroke:#000000; stroke-linecap:round; stroke-linejoin:round; stroke-width:4; stroke-opacity:1; fill:none" points="2495.33,1387.09 2495.33,1368.19 "/>
<polyline clip-path="url(#clip120)" style="stroke:#000000; stroke-linecap:round; stroke-linejoin:round; stroke-width:4; stroke-opacity:1; fill:none" points="557.876,97.1921 557.876,116.09 "/>
<polyline clip-path="url(#clip120)" style="stroke:#000000; stroke-linecap:round; stroke-linejoin:round; stroke-width:4; stroke-opacity:1; fill:none" points="1042.24,97.1921 1042.24,116.09 "/>
<polyline clip-path="url(#clip120)" style="stroke:#000000; stroke-linecap:round; stroke-linejoin:round; stroke-width:4; stroke-opacity:1; fill:none" points="1526.6,97.1921 1526.6,116.09 "/>
<polyline clip-path="url(#clip120)" style="stroke:#000000; stroke-linecap:round; stroke-linejoin:round; stroke-width:4; stroke-opacity:1; fill:none" points="2010.97,97.1921 2010.97,116.09 "/>
<polyline clip-path="url(#clip120)" style="stroke:#000000; stroke-linecap:round; stroke-linejoin:round; stroke-width:4; stroke-opacity:1; fill:none" points="2495.33,97.1921 2495.33,116.09 "/>
<path clip-path="url(#clip120)" d="M553.744 1419.9 L553.744 1424.46 Q551.082 1423.19 548.721 1422.56 Q546.36 1421.94 544.161 1421.94 Q540.342 1421.94 538.258 1423.42 Q536.198 1424.9 536.198 1427.63 Q536.198 1429.93 537.564 1431.11 Q538.953 1432.26 542.795 1432.98 L545.619 1433.56 Q550.851 1434.55 553.328 1437.08 Q555.828 1439.58 555.828 1443.79 Q555.828 1448.81 552.448 1451.41 Q549.091 1454 542.587 1454 Q540.133 1454 537.355 1453.44 Q534.601 1452.89 531.638 1451.8 L531.638 1446.99 Q534.485 1448.58 537.217 1449.39 Q539.948 1450.2 542.587 1450.2 Q546.591 1450.2 548.767 1448.63 Q550.943 1447.05 550.943 1444.14 Q550.943 1441.59 549.369 1440.16 Q547.818 1438.72 544.254 1438 L541.406 1437.45 Q536.175 1436.41 533.837 1434.18 Q531.499 1431.96 531.499 1428 Q531.499 1423.42 534.717 1420.78 Q537.957 1418.14 543.629 1418.14 Q546.059 1418.14 548.582 1418.58 Q551.105 1419.02 553.744 1419.9 Z" fill="#000000" fill-rule="nonzero" fill-opacity="1" /><path clip-path="url(#clip120)" d="M564.346 1449.39 L571.985 1449.39 L571.985 1423.03 L563.675 1424.69 L563.675 1420.43 L571.939 1418.77 L576.614 1418.77 L576.614 1449.39 L584.253 1449.39 L584.253 1453.33 L564.346 1453.33 L564.346 1449.39 Z" fill="#000000" fill-rule="nonzero" fill-opacity="1" /><path clip-path="url(#clip120)" d="M465.527 1469.2 Q462.425 1474.52 460.921 1479.73 Q459.416 1484.94 459.416 1490.28 Q459.416 1495.63 460.921 1500.89 Q462.448 1506.12 465.527 1511.42 L461.823 1511.42 Q458.351 1505.98 456.615 1500.72 Q454.902 1495.47 454.902 1490.28 Q454.902 1485.12 456.615 1479.89 Q458.328 1474.66 461.823 1469.2 L465.527 1469.2 Z" fill="#000000" fill-rule="nonzero" fill-opacity="1" /><path clip-path="url(#clip120)" d="M484.578 1507.58 Q482.772 1512.2 481.059 1513.62 Q479.346 1515.03 476.476 1515.03 L473.073 1515.03 L473.073 1511.46 L475.573 1511.46 Q477.333 1511.46 478.305 1510.63 Q479.277 1509.8 480.458 1506.7 L481.221 1504.75 L470.735 1479.24 L475.249 1479.24 L483.351 1499.52 L491.453 1479.24 L495.967 1479.24 L484.578 1507.58 Z" fill="#000000" fill-rule="nonzero" fill-opacity="1" /><path clip-path="url(#clip120)" d="M502.934 1499.29 L507.819 1499.29 L507.819 1503.27 L504.022 1510.68 L501.036 1510.68 L502.934 1503.27 L502.934 1499.29 Z" fill="#000000" fill-rule="nonzero" fill-opacity="1" /><path clip-path="url(#clip120)" d="M515.064 1479.24 L535.295 1479.24 L535.295 1483.13 L519.277 1501.77 L535.295 1501.77 L535.295 1505.17 L514.485 1505.17 L514.485 1501.28 L530.504 1482.64 L515.064 1482.64 L515.064 1479.24 Z" fill="#000000" fill-rule="nonzero" fill-opacity="1" /><path clip-path="url(#clip120)" d="M541.129 1469.2 L544.832 1469.2 Q548.304 1474.66 550.017 1479.89 Q551.754 1485.12 551.754 1490.28 Q551.754 1495.47 550.017 1500.72 Q548.304 1505.98 544.832 1511.42 L541.129 1511.42 Q544.207 1506.12 545.712 1500.89 Q547.24 1495.63 547.24 1490.28 Q547.24 1484.94 545.712 1479.73 Q544.207 1474.52 541.129 1469.2 Z" fill="#000000" fill-rule="nonzero" fill-opacity="1" /><path clip-path="url(#clip120)" d="M587.147 1492.14 Q581.985 1492.14 579.994 1493.32 Q578.003 1494.5 578.003 1497.34 Q578.003 1499.61 579.485 1500.95 Q580.989 1502.27 583.559 1502.27 Q587.101 1502.27 589.23 1499.77 Q591.383 1497.25 591.383 1493.08 L591.383 1492.14 L587.147 1492.14 M595.642 1490.38 L595.642 1505.17 L591.383 1505.17 L591.383 1501.23 Q589.925 1503.59 587.749 1504.73 Q585.573 1505.84 582.425 1505.84 Q578.443 1505.84 576.082 1503.62 Q573.744 1501.37 573.744 1497.62 Q573.744 1493.25 576.661 1491.02 Q579.601 1488.8 585.411 1488.8 L591.383 1488.8 L591.383 1488.39 Q591.383 1485.45 589.438 1483.85 Q587.517 1482.23 584.022 1482.23 Q581.8 1482.23 579.693 1482.76 Q577.587 1483.29 575.642 1484.36 L575.642 1480.42 Q577.98 1479.52 580.179 1479.08 Q582.378 1478.62 584.462 1478.62 Q590.087 1478.62 592.864 1481.53 Q595.642 1484.45 595.642 1490.38 Z" fill="#000000" fill-rule="nonzero" fill-opacity="1" /><path clip-path="url(#clip120)" d="M604.415 1469.15 L608.674 1469.15 L608.674 1505.17 L604.415 1505.17 L604.415 1469.15 Z" fill="#000000" fill-rule="nonzero" fill-opacity="1" /><path clip-path="url(#clip120)" d="M617.586 1469.15 L621.846 1469.15 L621.846 1505.17 L617.586 1505.17 L617.586 1469.15 Z" fill="#000000" fill-rule="nonzero" fill-opacity="1" /><path clip-path="url(#clip120)" d="M628.605 1490.28 L641.082 1490.28 L641.082 1494.08 L628.605 1494.08 L628.605 1490.28 Z" fill="#000000" fill-rule="nonzero" fill-opacity="1" /><path clip-path="url(#clip120)" d="M652.077 1471.88 L652.077 1479.24 L660.85 1479.24 L660.85 1482.55 L652.077 1482.55 L652.077 1496.63 Q652.077 1499.8 652.934 1500.7 Q653.813 1501.6 656.475 1501.6 L660.85 1501.6 L660.85 1505.17 L656.475 1505.17 Q651.545 1505.17 649.67 1503.34 Q647.795 1501.49 647.795 1496.63 L647.795 1482.55 L644.67 1482.55 L644.67 1479.24 L647.795 1479.24 L647.795 1471.88 L652.077 1471.88 Z" fill="#000000" fill-rule="nonzero" fill-opacity="1" /><path clip-path="url(#clip120)" d="M1038.29 1419.9 L1038.29 1424.46 Q1035.63 1423.19 1033.27 1422.56 Q1030.91 1421.94 1028.71 1421.94 Q1024.89 1421.94 1022.81 1423.42 Q1020.75 1424.9 1020.75 1427.63 Q1020.75 1429.93 1022.11 1431.11 Q1023.5 1432.26 1027.34 1432.98 L1030.17 1433.56 Q1035.4 1434.55 1037.88 1437.08 Q1040.38 1439.58 1040.38 1443.79 Q1040.38 1448.81 1037 1451.41 Q1033.64 1454 1027.14 1454 Q1024.68 1454 1021.9 1453.44 Q1019.15 1452.89 1016.19 1451.8 L1016.19 1446.99 Q1019.03 1448.58 1021.76 1449.39 Q1024.5 1450.2 1027.14 1450.2 Q1031.14 1450.2 1033.32 1448.63 Q1035.49 1447.05 1035.49 1444.14 Q1035.49 1441.59 1033.92 1440.16 Q1032.37 1438.72 1028.8 1438 L1025.95 1437.45 Q1020.72 1436.41 1018.39 1434.18 Q1016.05 1431.96 1016.05 1428 Q1016.05 1423.42 1019.26 1420.78 Q1022.51 1418.14 1028.18 1418.14 Q1030.61 1418.14 1033.13 1418.58 Q1035.65 1419.02 1038.29 1419.9 Z" fill="#000000" fill-rule="nonzero" fill-opacity="1" /><path clip-path="url(#clip120)" d="M1052.11 1449.39 L1068.43 1449.39 L1068.43 1453.33 L1046.49 1453.33 L1046.49 1449.39 Q1049.15 1446.64 1053.73 1442.01 Q1058.34 1437.36 1059.52 1436.01 Q1061.76 1433.49 1062.64 1431.75 Q1063.55 1429.99 1063.55 1428.3 Q1063.55 1425.55 1061.6 1423.81 Q1059.68 1422.08 1056.58 1422.08 Q1054.38 1422.08 1051.93 1422.84 Q1049.5 1423.61 1046.72 1425.16 L1046.72 1420.43 Q1049.54 1419.3 1052 1418.72 Q1054.45 1418.14 1056.49 1418.14 Q1061.86 1418.14 1065.05 1420.83 Q1068.25 1423.51 1068.25 1428 Q1068.25 1430.13 1067.44 1432.05 Q1066.65 1433.95 1064.54 1436.55 Q1063.96 1437.22 1060.86 1440.43 Q1057.76 1443.63 1052.11 1449.39 Z" fill="#000000" fill-rule="nonzero" fill-opacity="1" /><path clip-path="url(#clip120)" d="M969.821 1507.58 Q968.015 1512.2 966.302 1513.62 Q964.589 1515.03 961.719 1515.03 L958.316 1515.03 L958.316 1511.46 L960.816 1511.46 Q962.575 1511.46 963.548 1510.63 Q964.52 1509.8 965.7 1506.7 L966.464 1504.75 L955.978 1479.24 L960.492 1479.24 L968.594 1499.52 L976.696 1479.24 L981.21 1479.24 L969.821 1507.58 Z" fill="#000000" fill-rule="nonzero" fill-opacity="1" /><path clip-path="url(#clip120)" d="M994.659 1470.61 L998.594 1470.61 L986.557 1509.57 L982.622 1509.57 L994.659 1470.61 Z" fill="#000000" fill-rule="nonzero" fill-opacity="1" /><path clip-path="url(#clip120)" d="M1001.21 1479.24 L1021.44 1479.24 L1021.44 1483.13 L1005.42 1501.77 L1021.44 1501.77 L1021.44 1505.17 L1000.63 1505.17 L1000.63 1501.28 L1016.65 1482.64 L1001.21 1482.64 L1001.21 1479.24 Z" fill="#000000" fill-rule="nonzero" fill-opacity="1" /><path clip-path="url(#clip120)" d="M1054.8 1492.14 Q1049.64 1492.14 1047.64 1493.32 Q1045.65 1494.5 1045.65 1497.34 Q1045.65 1499.61 1047.14 1500.95 Q1048.64 1502.27 1051.21 1502.27 Q1054.75 1502.27 1056.88 1499.77 Q1059.03 1497.25 1059.03 1493.08 L1059.03 1492.14 L1054.8 1492.14 M1063.29 1490.38 L1063.29 1505.17 L1059.03 1505.17 L1059.03 1501.23 Q1057.57 1503.59 1055.4 1504.73 Q1053.22 1505.84 1050.07 1505.84 Q1046.09 1505.84 1043.73 1503.62 Q1041.39 1501.37 1041.39 1497.62 Q1041.39 1493.25 1044.31 1491.02 Q1047.25 1488.8 1053.06 1488.8 L1059.03 1488.8 L1059.03 1488.39 Q1059.03 1485.45 1057.09 1483.85 Q1055.17 1482.23 1051.67 1482.23 Q1049.45 1482.23 1047.34 1482.76 Q1045.24 1483.29 1043.29 1484.36 L1043.29 1480.42 Q1045.63 1479.52 1047.83 1479.08 Q1050.03 1478.62 1052.11 1478.62 Q1057.74 1478.62 1060.51 1481.53 Q1063.29 1484.45 1063.29 1490.38 Z" fill="#000000" fill-rule="nonzero" fill-opacity="1" /><path clip-path="url(#clip120)" d="M1072.07 1469.15 L1076.32 1469.15 L1076.32 1505.17 L1072.07 1505.17 L1072.07 1469.15 Z" fill="#000000" fill-rule="nonzero" fill-opacity="1" /><path clip-path="url(#clip120)" d="M1085.24 1469.15 L1089.5 1469.15 L1089.5 1505.17 L1085.24 1505.17 L1085.24 1469.15 Z" fill="#000000" fill-rule="nonzero" fill-opacity="1" /><path clip-path="url(#clip120)" d="M1096.26 1490.28 L1108.73 1490.28 L1108.73 1494.08 L1096.26 1494.08 L1096.26 1490.28 Z" fill="#000000" fill-rule="nonzero" fill-opacity="1" /><path clip-path="url(#clip120)" d="M1119.73 1471.88 L1119.73 1479.24 L1128.5 1479.24 L1128.5 1482.55 L1119.73 1482.55 L1119.73 1496.63 Q1119.73 1499.8 1120.58 1500.7 Q1121.46 1501.6 1124.13 1501.6 L1128.5 1501.6 L1128.5 1505.17 L1124.13 1505.17 Q1119.19 1505.17 1117.32 1503.34 Q1115.45 1501.49 1115.45 1496.63 L1115.45 1482.55 L1112.32 1482.55 L1112.32 1479.24 L1115.45 1479.24 L1115.45 1471.88 L1119.73 1471.88 Z" fill="#000000" fill-rule="nonzero" fill-opacity="1" /><path clip-path="url(#clip120)" d="M1522.18 1419.9 L1522.18 1424.46 Q1519.52 1423.19 1517.16 1422.56 Q1514.8 1421.94 1512.6 1421.94 Q1508.78 1421.94 1506.7 1423.42 Q1504.64 1424.9 1504.64 1427.63 Q1504.64 1429.93 1506 1431.11 Q1507.39 1432.26 1511.23 1432.98 L1514.06 1433.56 Q1519.29 1434.55 1521.76 1437.08 Q1524.26 1439.58 1524.26 1443.79 Q1524.26 1448.81 1520.89 1451.41 Q1517.53 1454 1511.02 1454 Q1508.57 1454 1505.79 1453.44 Q1503.04 1452.89 1500.07 1451.8 L1500.07 1446.99 Q1502.92 1448.58 1505.65 1449.39 Q1508.39 1450.2 1511.02 1450.2 Q1515.03 1450.2 1517.2 1448.63 Q1519.38 1447.05 1519.38 1444.14 Q1519.38 1441.59 1517.81 1440.16 Q1516.26 1438.72 1512.69 1438 L1509.84 1437.45 Q1504.61 1436.41 1502.27 1434.18 Q1499.94 1431.96 1499.94 1428 Q1499.94 1423.42 1503.15 1420.78 Q1506.39 1418.14 1512.07 1418.14 Q1514.5 1418.14 1517.02 1418.58 Q1519.54 1419.02 1522.18 1419.9 Z" fill="#000000" fill-rule="nonzero" fill-opacity="1" /><path clip-path="url(#clip120)" d="M1546.14 1434.69 Q1549.5 1435.41 1551.37 1437.68 Q1553.27 1439.95 1553.27 1443.28 Q1553.27 1448.4 1549.75 1451.2 Q1546.23 1454 1539.75 1454 Q1537.57 1454 1535.26 1453.56 Q1532.97 1453.14 1530.51 1452.29 L1530.51 1447.77 Q1532.46 1448.91 1534.77 1449.49 Q1537.09 1450.06 1539.61 1450.06 Q1544.01 1450.06 1546.3 1448.33 Q1548.62 1446.59 1548.62 1443.28 Q1548.62 1440.23 1546.46 1438.51 Q1544.33 1436.78 1540.51 1436.78 L1536.49 1436.78 L1536.49 1432.93 L1540.7 1432.93 Q1544.15 1432.93 1545.98 1431.57 Q1547.81 1430.18 1547.81 1427.59 Q1547.81 1424.93 1545.91 1423.51 Q1544.03 1422.08 1540.51 1422.08 Q1538.59 1422.08 1536.39 1422.49 Q1534.2 1422.91 1531.56 1423.79 L1531.56 1419.62 Q1534.22 1418.88 1536.53 1418.51 Q1538.87 1418.14 1540.93 1418.14 Q1546.26 1418.14 1549.36 1420.57 Q1552.46 1422.98 1552.46 1427.1 Q1552.46 1429.97 1550.82 1431.96 Q1549.17 1433.93 1546.14 1434.69 Z" fill="#000000" fill-rule="nonzero" fill-opacity="1" /><path clip-path="url(#clip120)" d="M1439.13 1507.58 Q1437.32 1512.2 1435.61 1513.62 Q1433.89 1515.03 1431.02 1515.03 L1427.62 1515.03 L1427.62 1511.46 L1430.12 1511.46 Q1431.88 1511.46 1432.85 1510.63 Q1433.83 1509.8 1435.01 1506.7 L1435.77 1504.75 L1425.28 1479.24 L1429.8 1479.24 L1437.9 1499.52 L1446 1479.24 L1450.52 1479.24 L1439.13 1507.58 Z" fill="#000000" fill-rule="nonzero" fill-opacity="1" /><path clip-path="url(#clip120)" d="M1463.96 1470.61 L1467.9 1470.61 L1455.86 1509.57 L1451.93 1509.57 L1463.96 1470.61 Z" fill="#000000" fill-rule="nonzero" fill-opacity="1" /><path clip-path="url(#clip120)" d="M1470.51 1479.24 L1490.75 1479.24 L1490.75 1483.13 L1474.73 1501.77 L1490.75 1501.77 L1490.75 1505.17 L1469.94 1505.17 L1469.94 1501.28 L1485.95 1482.64 L1470.51 1482.64 L1470.51 1479.24 Z" fill="#000000" fill-rule="nonzero" fill-opacity="1" /><path clip-path="url(#clip120)" d="M1512.32 1469.15 L1516.58 1469.15 L1516.58 1505.17 L1512.32 1505.17 L1512.32 1469.15 Z" fill="#000000" fill-rule="nonzero" fill-opacity="1" /><path clip-path="url(#clip120)" d="M1537.27 1492.14 Q1532.11 1492.14 1530.12 1493.32 Q1528.13 1494.5 1528.13 1497.34 Q1528.13 1499.61 1529.61 1500.95 Q1531.12 1502.27 1533.69 1502.27 Q1537.23 1502.27 1539.36 1499.77 Q1541.51 1497.25 1541.51 1493.08 L1541.51 1492.14 L1537.27 1492.14 M1545.77 1490.38 L1545.77 1505.17 L1541.51 1505.17 L1541.51 1501.23 Q1540.05 1503.59 1537.88 1504.73 Q1535.7 1505.84 1532.55 1505.84 Q1528.57 1505.84 1526.21 1503.62 Q1523.87 1501.37 1523.87 1497.62 Q1523.87 1493.25 1526.79 1491.02 Q1529.73 1488.8 1535.54 1488.8 L1541.51 1488.8 L1541.51 1488.39 Q1541.51 1485.45 1539.57 1483.85 Q1537.64 1482.23 1534.15 1482.23 Q1531.93 1482.23 1529.82 1482.76 Q1527.71 1483.29 1525.77 1484.36 L1525.77 1480.42 Q1528.11 1479.52 1530.31 1479.08 Q1532.51 1478.62 1534.59 1478.62 Q1540.21 1478.62 1542.99 1481.53 Q1545.77 1484.45 1545.77 1490.38 Z" fill="#000000" fill-rule="nonzero" fill-opacity="1" /><path clip-path="url(#clip120)" d="M1571.07 1480.01 L1571.07 1484.03 Q1569.26 1483.11 1567.32 1482.64 Q1565.38 1482.18 1563.29 1482.18 Q1560.12 1482.18 1558.52 1483.15 Q1556.95 1484.13 1556.95 1486.07 Q1556.95 1487.55 1558.08 1488.41 Q1559.22 1489.24 1562.64 1490.01 L1564.1 1490.33 Q1568.64 1491.3 1570.54 1493.08 Q1572.46 1494.84 1572.46 1498.02 Q1572.46 1501.63 1569.59 1503.73 Q1566.74 1505.84 1561.74 1505.84 Q1559.66 1505.84 1557.39 1505.42 Q1555.14 1505.03 1552.64 1504.22 L1552.64 1499.82 Q1555.01 1501.05 1557.3 1501.67 Q1559.59 1502.27 1561.83 1502.27 Q1564.84 1502.27 1566.46 1501.26 Q1568.08 1500.21 1568.08 1498.34 Q1568.08 1496.6 1566.9 1495.68 Q1565.75 1494.75 1561.79 1493.89 L1560.31 1493.55 Q1556.35 1492.71 1554.59 1491 Q1552.83 1489.27 1552.83 1486.26 Q1552.83 1482.6 1555.42 1480.61 Q1558.01 1478.62 1562.78 1478.62 Q1565.14 1478.62 1567.23 1478.96 Q1569.31 1479.31 1571.07 1480.01 Z" fill="#000000" fill-rule="nonzero" fill-opacity="1" /><path clip-path="url(#clip120)" d="M1583.45 1471.88 L1583.45 1479.24 L1592.23 1479.24 L1592.23 1482.55 L1583.45 1482.55 L1583.45 1496.63 Q1583.45 1499.8 1584.31 1500.7 Q1585.19 1501.6 1587.85 1501.6 L1592.23 1501.6 L1592.23 1505.17 L1587.85 1505.17 Q1582.92 1505.17 1581.05 1503.34 Q1579.17 1501.49 1579.17 1496.63 L1579.17 1482.55 L1576.05 1482.55 L1576.05 1479.24 L1579.17 1479.24 L1579.17 1471.88 L1583.45 1471.88 Z" fill="#000000" fill-rule="nonzero" fill-opacity="1" /><path clip-path="url(#clip120)" d="M1595.68 1490.28 L1608.15 1490.28 L1608.15 1494.08 L1595.68 1494.08 L1595.68 1490.28 Z" fill="#000000" fill-rule="nonzero" fill-opacity="1" /><path clip-path="url(#clip120)" d="M1619.15 1471.88 L1619.15 1479.24 L1627.92 1479.24 L1627.92 1482.55 L1619.15 1482.55 L1619.15 1496.63 Q1619.15 1499.8 1620 1500.7 Q1620.88 1501.6 1623.55 1501.6 L1627.92 1501.6 L1627.92 1505.17 L1623.55 1505.17 Q1618.62 1505.17 1616.74 1503.34 Q1614.87 1501.49 1614.87 1496.63 L1614.87 1482.55 L1611.74 1482.55 L1611.74 1479.24 L1614.87 1479.24 L1614.87 1471.88 L1619.15 1471.88 Z" fill="#000000" fill-rule="nonzero" fill-opacity="1" /><path clip-path="url(#clip120)" d="M2005.98 1419.9 L2005.98 1424.46 Q2003.32 1423.19 2000.95 1422.56 Q1998.59 1421.94 1996.39 1421.94 Q1992.57 1421.94 1990.49 1423.42 Q1988.43 1424.9 1988.43 1427.63 Q1988.43 1429.93 1989.8 1431.11 Q1991.19 1432.26 1995.03 1432.98 L1997.85 1433.56 Q2003.08 1434.55 2005.56 1437.08 Q2008.06 1439.58 2008.06 1443.79 Q2008.06 1448.81 2004.68 1451.41 Q2001.32 1454 1994.82 1454 Q1992.37 1454 1989.59 1453.44 Q1986.83 1452.89 1983.87 1451.8 L1983.87 1446.99 Q1986.72 1448.58 1989.45 1449.39 Q1992.18 1450.2 1994.82 1450.2 Q1998.82 1450.2 2001 1448.63 Q2003.18 1447.05 2003.18 1444.14 Q2003.18 1441.59 2001.6 1440.16 Q2000.05 1438.72 1996.49 1438 L1993.64 1437.45 Q1988.41 1436.41 1986.07 1434.18 Q1983.73 1431.96 1983.73 1428 Q1983.73 1423.42 1986.95 1420.78 Q1990.19 1418.14 1995.86 1418.14 Q1998.29 1418.14 2000.82 1418.58 Q2003.34 1419.02 2005.98 1419.9 Z" fill="#000000" fill-rule="nonzero" fill-opacity="1" /><path clip-path="url(#clip120)" d="M2028.62 1422.84 L2016.81 1441.29 L2028.62 1441.29 L2028.62 1422.84 M2027.39 1418.77 L2033.27 1418.77 L2033.27 1441.29 L2038.2 1441.29 L2038.2 1445.18 L2033.27 1445.18 L2033.27 1453.33 L2028.62 1453.33 L2028.62 1445.18 L2013.01 1445.18 L2013.01 1440.67 L2027.39 1418.77 Z" fill="#000000" fill-rule="nonzero" fill-opacity="1" /><path clip-path="url(#clip120)" d="M1851.43 1479.24 L1855.69 1479.24 L1861.01 1499.47 L1866.31 1479.24 L1871.34 1479.24 L1876.66 1499.47 L1881.96 1479.24 L1886.22 1479.24 L1879.44 1505.17 L1874.42 1505.17 L1868.84 1483.92 L1863.24 1505.17 L1858.21 1505.17 L1851.43 1479.24 Z" fill="#000000" fill-rule="nonzero" fill-opacity="1" /><path clip-path="url(#clip120)" d="M1892.68 1479.24 L1896.94 1479.24 L1896.94 1505.17 L1892.68 1505.17 L1892.68 1479.24 M1892.68 1469.15 L1896.94 1469.15 L1896.94 1474.54 L1892.68 1474.54 L1892.68 1469.15 Z" fill="#000000" fill-rule="nonzero" fill-opacity="1" /><path clip-path="url(#clip120)" d="M1927.4 1489.52 L1927.4 1505.17 L1923.14 1505.17 L1923.14 1489.66 Q1923.14 1485.98 1921.71 1484.15 Q1920.27 1482.32 1917.4 1482.32 Q1913.95 1482.32 1911.96 1484.52 Q1909.97 1486.72 1909.97 1490.52 L1909.97 1505.17 L1905.69 1505.17 L1905.69 1479.24 L1909.97 1479.24 L1909.97 1483.27 Q1911.5 1480.93 1913.56 1479.77 Q1915.64 1478.62 1918.35 1478.62 Q1922.82 1478.62 1925.11 1481.39 Q1927.4 1484.15 1927.4 1489.52 Z" fill="#000000" fill-rule="nonzero" fill-opacity="1" /><path clip-path="url(#clip120)" d="M1952.96 1483.18 L1952.96 1469.15 L1957.22 1469.15 L1957.22 1505.17 L1952.96 1505.17 L1952.96 1501.28 Q1951.61 1503.59 1949.55 1504.73 Q1947.52 1505.84 1944.65 1505.84 Q1939.95 1505.84 1936.98 1502.09 Q1934.04 1498.34 1934.04 1492.23 Q1934.04 1486.12 1936.98 1482.37 Q1939.95 1478.62 1944.65 1478.62 Q1947.52 1478.62 1949.55 1479.75 Q1951.61 1480.86 1952.96 1483.18 M1938.44 1492.23 Q1938.44 1496.93 1940.36 1499.61 Q1942.31 1502.27 1945.69 1502.27 Q1949.07 1502.27 1951.01 1499.61 Q1952.96 1496.93 1952.96 1492.23 Q1952.96 1487.53 1951.01 1484.87 Q1949.07 1482.18 1945.69 1482.18 Q1942.31 1482.18 1940.36 1484.87 Q1938.44 1487.53 1938.44 1492.23 Z" fill="#000000" fill-rule="nonzero" fill-opacity="1" /><path clip-path="url(#clip120)" d="M1976.04 1482.23 Q1972.61 1482.23 1970.62 1484.91 Q1968.63 1487.58 1968.63 1492.23 Q1968.63 1496.88 1970.6 1499.57 Q1972.59 1502.23 1976.04 1502.23 Q1979.44 1502.23 1981.43 1499.54 Q1983.42 1496.86 1983.42 1492.23 Q1983.42 1487.62 1981.43 1484.94 Q1979.44 1482.23 1976.04 1482.23 M1976.04 1478.62 Q1981.59 1478.62 1984.76 1482.23 Q1987.93 1485.84 1987.93 1492.23 Q1987.93 1498.59 1984.76 1502.23 Q1981.59 1505.84 1976.04 1505.84 Q1970.46 1505.84 1967.29 1502.23 Q1964.14 1498.59 1964.14 1492.23 Q1964.14 1485.84 1967.29 1482.23 Q1970.46 1478.62 1976.04 1478.62 Z" fill="#000000" fill-rule="nonzero" fill-opacity="1" /><path clip-path="url(#clip120)" d="M1992.52 1479.24 L1996.78 1479.24 L2002.1 1499.47 L2007.4 1479.24 L2012.42 1479.24 L2017.75 1499.47 L2023.05 1479.24 L2027.31 1479.24 L2020.53 1505.17 L2015.5 1505.17 L2009.92 1483.92 L2004.32 1505.17 L1999.3 1505.17 L1992.52 1479.24 Z" fill="#000000" fill-rule="nonzero" fill-opacity="1" /><path clip-path="url(#clip120)" d="M2055.94 1491.14 L2055.94 1493.22 L2036.36 1493.22 Q2036.64 1497.62 2039 1499.94 Q2041.38 1502.23 2045.62 1502.23 Q2048.07 1502.23 2050.36 1501.63 Q2052.68 1501.02 2054.95 1499.82 L2054.95 1503.85 Q2052.66 1504.82 2050.25 1505.33 Q2047.84 1505.84 2045.36 1505.84 Q2039.16 1505.84 2035.53 1502.23 Q2031.91 1498.62 2031.91 1492.46 Q2031.91 1486.09 2035.34 1482.37 Q2038.79 1478.62 2044.62 1478.62 Q2049.85 1478.62 2052.89 1482 Q2055.94 1485.35 2055.94 1491.14 M2051.68 1489.89 Q2051.64 1486.39 2049.72 1484.31 Q2047.82 1482.23 2044.67 1482.23 Q2041.1 1482.23 2038.95 1484.24 Q2036.82 1486.26 2036.5 1489.91 L2051.68 1489.89 Z" fill="#000000" fill-rule="nonzero" fill-opacity="1" /><path clip-path="url(#clip120)" d="M2079.99 1483.18 L2079.99 1469.15 L2084.25 1469.15 L2084.25 1505.17 L2079.99 1505.17 L2079.99 1501.28 Q2078.65 1503.59 2076.59 1504.73 Q2074.55 1505.84 2071.68 1505.84 Q2066.98 1505.84 2064.02 1502.09 Q2061.08 1498.34 2061.08 1492.23 Q2061.08 1486.12 2064.02 1482.37 Q2066.98 1478.62 2071.68 1478.62 Q2074.55 1478.62 2076.59 1479.75 Q2078.65 1480.86 2079.99 1483.18 M2065.48 1492.23 Q2065.48 1496.93 2067.4 1499.61 Q2069.35 1502.27 2072.72 1502.27 Q2076.1 1502.27 2078.05 1499.61 Q2079.99 1496.93 2079.99 1492.23 Q2079.99 1487.53 2078.05 1484.87 Q2076.1 1482.18 2072.72 1482.18 Q2069.35 1482.18 2067.4 1484.87 Q2065.48 1487.53 2065.48 1492.23 Z" fill="#000000" fill-rule="nonzero" fill-opacity="1" /><path clip-path="url(#clip120)" d="M2118.88 1507.58 Q2117.08 1512.2 2115.36 1513.62 Q2113.65 1515.03 2110.78 1515.03 L2107.38 1515.03 L2107.38 1511.46 L2109.88 1511.46 Q2111.64 1511.46 2112.61 1510.63 Q2113.58 1509.8 2114.76 1506.7 L2115.53 1504.75 L2105.04 1479.24 L2109.55 1479.24 L2117.66 1499.52 L2125.76 1479.24 L2130.27 1479.24 L2118.88 1507.58 Z" fill="#000000" fill-rule="nonzero" fill-opacity="1" /><path clip-path="url(#clip120)" d="M2143.72 1470.61 L2147.65 1470.61 L2135.62 1509.57 L2131.68 1509.57 L2143.72 1470.61 Z" fill="#000000" fill-rule="nonzero" fill-opacity="1" /><path clip-path="url(#clip120)" d="M2150.27 1479.24 L2170.5 1479.24 L2170.5 1483.13 L2154.48 1501.77 L2170.5 1501.77 L2170.5 1505.17 L2149.69 1505.17 L2149.69 1501.28 L2165.71 1482.64 L2150.27 1482.64 L2150.27 1479.24 Z" fill="#000000" fill-rule="nonzero" fill-opacity="1" /><path clip-path="url(#clip120)" d="M2491.08 1419.9 L2491.08 1424.46 Q2488.42 1423.19 2486.06 1422.56 Q2483.7 1421.94 2481.5 1421.94 Q2477.68 1421.94 2475.6 1423.42 Q2473.54 1424.9 2473.54 1427.63 Q2473.54 1429.93 2474.9 1431.11 Q2476.29 1432.26 2480.13 1432.98 L2482.96 1433.56 Q2488.19 1434.55 2490.66 1437.08 Q2493.16 1439.58 2493.16 1443.79 Q2493.16 1448.81 2489.79 1451.41 Q2486.43 1454 2479.92 1454 Q2477.47 1454 2474.69 1453.44 Q2471.94 1452.89 2468.98 1451.8 L2468.98 1446.99 Q2471.82 1448.58 2474.55 1449.39 Q2477.29 1450.2 2479.92 1450.2 Q2483.93 1450.2 2486.1 1448.63 Q2488.28 1447.05 2488.28 1444.14 Q2488.28 1441.59 2486.71 1440.16 Q2485.16 1438.72 2481.59 1438 L2478.74 1437.45 Q2473.51 1436.41 2471.17 1434.18 Q2468.84 1431.96 2468.84 1428 Q2468.84 1423.42 2472.05 1420.78 Q2475.29 1418.14 2480.97 1418.14 Q2483.4 1418.14 2485.92 1418.58 Q2488.44 1419.02 2491.08 1419.9 Z" fill="#000000" fill-rule="nonzero" fill-opacity="1" /><path clip-path="url(#clip120)" d="M2500.92 1418.77 L2519.28 1418.77 L2519.28 1422.7 L2505.2 1422.7 L2505.2 1431.18 Q2506.22 1430.83 2507.24 1430.67 Q2508.26 1430.48 2509.28 1430.48 Q2515.06 1430.48 2518.44 1433.65 Q2521.82 1436.82 2521.82 1442.24 Q2521.82 1447.82 2518.35 1450.92 Q2514.88 1454 2508.56 1454 Q2506.38 1454 2504.11 1453.63 Q2501.87 1453.26 2499.46 1452.52 L2499.46 1447.82 Q2501.54 1448.95 2503.77 1449.51 Q2505.99 1450.06 2508.47 1450.06 Q2512.47 1450.06 2514.81 1447.96 Q2517.15 1445.85 2517.15 1442.24 Q2517.15 1438.63 2514.81 1436.52 Q2512.47 1434.42 2508.47 1434.42 Q2506.59 1434.42 2504.72 1434.83 Q2502.86 1435.25 2500.92 1436.13 L2500.92 1418.77 Z" fill="#000000" fill-rule="nonzero" fill-opacity="1" /><path clip-path="url(#clip120)" d="M2424.5 1484.22 Q2426.09 1481.35 2428.32 1479.98 Q2430.54 1478.62 2433.55 1478.62 Q2437.6 1478.62 2439.8 1481.46 Q2442 1484.29 2442 1489.52 L2442 1505.17 L2437.71 1505.17 L2437.71 1489.66 Q2437.71 1485.93 2436.39 1484.13 Q2435.07 1482.32 2432.37 1482.32 Q2429.06 1482.32 2427.14 1484.52 Q2425.21 1486.72 2425.21 1490.52 L2425.21 1505.17 L2420.93 1505.17 L2420.93 1489.66 Q2420.93 1485.91 2419.61 1484.13 Q2418.29 1482.32 2415.54 1482.32 Q2412.27 1482.32 2410.35 1484.54 Q2408.43 1486.74 2408.43 1490.52 L2408.43 1505.17 L2404.15 1505.17 L2404.15 1479.24 L2408.43 1479.24 L2408.43 1483.27 Q2409.89 1480.89 2411.93 1479.75 Q2413.96 1478.62 2416.76 1478.62 Q2419.59 1478.62 2421.56 1480.05 Q2423.55 1481.49 2424.5 1484.22 Z" fill="#000000" fill-rule="nonzero" fill-opacity="1" /><path clip-path="url(#clip120)" d="M2450.49 1479.24 L2454.75 1479.24 L2454.75 1505.17 L2450.49 1505.17 L2450.49 1479.24 M2450.49 1469.15 L2454.75 1469.15 L2454.75 1474.54 L2450.49 1474.54 L2450.49 1469.15 Z" fill="#000000" fill-rule="nonzero" fill-opacity="1" /><path clip-path="url(#clip120)" d="M2478.69 1483.22 Q2477.97 1482.81 2477.11 1482.62 Q2476.28 1482.41 2475.26 1482.41 Q2471.65 1482.41 2469.7 1484.77 Q2467.78 1487.11 2467.78 1491.51 L2467.78 1505.17 L2463.5 1505.17 L2463.5 1479.24 L2467.78 1479.24 L2467.78 1483.27 Q2469.13 1480.91 2471.28 1479.77 Q2473.43 1478.62 2476.51 1478.62 Q2476.95 1478.62 2477.48 1478.69 Q2478.01 1478.73 2478.66 1478.85 L2478.69 1483.22 Z" fill="#000000" fill-rule="nonzero" fill-opacity="1" /><path clip-path="url(#clip120)" d="M2497.34 1483.22 Q2496.63 1482.81 2495.77 1482.62 Q2494.94 1482.41 2493.92 1482.41 Q2490.31 1482.41 2488.36 1484.77 Q2486.44 1487.11 2486.44 1491.51 L2486.44 1505.17 L2482.16 1505.17 L2482.16 1479.24 L2486.44 1479.24 L2486.44 1483.27 Q2487.78 1480.91 2489.94 1479.77 Q2492.09 1478.62 2495.17 1478.62 Q2495.61 1478.62 2496.14 1478.69 Q2496.67 1478.73 2497.32 1478.85 L2497.34 1483.22 Z" fill="#000000" fill-rule="nonzero" fill-opacity="1" /><path clip-path="url(#clip120)" d="M2510.82 1482.23 Q2507.39 1482.23 2505.4 1484.91 Q2503.41 1487.58 2503.41 1492.23 Q2503.41 1496.88 2505.38 1499.57 Q2507.37 1502.23 2510.82 1502.23 Q2514.22 1502.23 2516.21 1499.54 Q2518.2 1496.86 2518.2 1492.23 Q2518.2 1487.62 2516.21 1484.94 Q2514.22 1482.23 2510.82 1482.23 M2510.82 1478.62 Q2516.37 1478.62 2519.54 1482.23 Q2522.71 1485.84 2522.71 1492.23 Q2522.71 1498.59 2519.54 1502.23 Q2516.37 1505.84 2510.82 1505.84 Q2505.24 1505.84 2502.07 1502.23 Q2498.92 1498.59 2498.92 1492.23 Q2498.92 1485.84 2502.07 1482.23 Q2505.24 1478.62 2510.82 1478.62 Z" fill="#000000" fill-rule="nonzero" fill-opacity="1" /><path clip-path="url(#clip120)" d="M2544.8 1483.22 Q2544.08 1482.81 2543.22 1482.62 Q2542.39 1482.41 2541.37 1482.41 Q2537.76 1482.41 2535.81 1484.77 Q2533.89 1487.11 2533.89 1491.51 L2533.89 1505.17 L2529.61 1505.17 L2529.61 1479.24 L2533.89 1479.24 L2533.89 1483.27 Q2535.24 1480.91 2537.39 1479.77 Q2539.54 1478.62 2542.62 1478.62 Q2543.06 1478.62 2543.59 1478.69 Q2544.13 1478.73 2544.77 1478.85 L2544.8 1483.22 Z" fill="#000000" fill-rule="nonzero" fill-opacity="1" /><path clip-path="url(#clip120)" d="M2575.12 1507.58 Q2573.31 1512.2 2571.6 1513.62 Q2569.89 1515.03 2567.02 1515.03 L2563.62 1515.03 L2563.62 1511.46 L2566.12 1511.46 Q2567.88 1511.46 2568.85 1510.63 Q2569.82 1509.8 2571 1506.7 L2571.76 1504.75 L2561.28 1479.24 L2565.79 1479.24 L2573.89 1499.52 L2582 1479.24 L2586.51 1479.24 L2575.12 1507.58 Z" fill="#000000" fill-rule="nonzero" fill-opacity="1" /><polyline clip-path="url(#clip120)" style="stroke:#000000; stroke-linecap:round; stroke-linejoin:round; stroke-width:4; stroke-opacity:1; fill:none" points="220.449,1387.09 220.449,97.1921 "/>
<polyline clip-path="url(#clip120)" style="stroke:#000000; stroke-linecap:round; stroke-linejoin:round; stroke-width:4; stroke-opacity:1; fill:none" points="2832.76,1387.09 2832.76,97.1921 "/>
<polyline clip-path="url(#clip120)" style="stroke:#000000; stroke-linecap:round; stroke-linejoin:round; stroke-width:4; stroke-opacity:1; fill:none" points="220.449,1387.09 239.347,1387.09 "/>
<polyline clip-path="url(#clip120)" style="stroke:#000000; stroke-linecap:round; stroke-linejoin:round; stroke-width:4; stroke-opacity:1; fill:none" points="220.449,976.293 239.347,976.293 "/>
<polyline clip-path="url(#clip120)" style="stroke:#000000; stroke-linecap:round; stroke-linejoin:round; stroke-width:4; stroke-opacity:1; fill:none" points="220.449,565.498 239.347,565.498 "/>
<polyline clip-path="url(#clip120)" style="stroke:#000000; stroke-linecap:round; stroke-linejoin:round; stroke-width:4; stroke-opacity:1; fill:none" points="220.449,154.703 239.347,154.703 "/>
<polyline clip-path="url(#clip120)" style="stroke:#000000; stroke-linecap:round; stroke-linejoin:round; stroke-width:4; stroke-opacity:1; fill:none" points="2832.76,1387.09 2813.86,1387.09 "/>
<polyline clip-path="url(#clip120)" style="stroke:#000000; stroke-linecap:round; stroke-linejoin:round; stroke-width:4; stroke-opacity:1; fill:none" points="2832.76,976.293 2813.86,976.293 "/>
<polyline clip-path="url(#clip120)" style="stroke:#000000; stroke-linecap:round; stroke-linejoin:round; stroke-width:4; stroke-opacity:1; fill:none" points="2832.76,565.498 2813.86,565.498 "/>
<polyline clip-path="url(#clip120)" style="stroke:#000000; stroke-linecap:round; stroke-linejoin:round; stroke-width:4; stroke-opacity:1; fill:none" points="2832.76,154.703 2813.86,154.703 "/>
<path clip-path="url(#clip120)" d="M165.305 1372.89 Q161.694 1372.89 159.865 1376.45 Q158.06 1379.99 158.06 1387.12 Q158.06 1394.23 159.865 1397.79 Q161.694 1401.34 165.305 1401.34 Q168.939 1401.34 170.745 1397.79 Q172.573 1394.23 172.573 1387.12 Q172.573 1379.99 170.745 1376.45 Q168.939 1372.89 165.305 1372.89 M165.305 1369.18 Q171.115 1369.18 174.171 1373.79 Q177.249 1378.37 177.249 1387.12 Q177.249 1395.85 174.171 1400.46 Q171.115 1405.04 165.305 1405.04 Q159.495 1405.04 156.416 1400.46 Q153.361 1395.85 153.361 1387.12 Q153.361 1378.37 156.416 1373.79 Q159.495 1369.18 165.305 1369.18 Z" fill="#000000" fill-rule="nonzero" fill-opacity="1" /><path clip-path="url(#clip120)" d="M125.189 959.013 L143.546 959.013 L143.546 962.948 L129.472 962.948 L129.472 971.42 Q130.49 971.073 131.509 970.911 Q132.527 970.726 133.546 970.726 Q139.333 970.726 142.712 973.897 Q146.092 977.069 146.092 982.485 Q146.092 988.064 142.62 991.166 Q139.148 994.244 132.828 994.244 Q130.652 994.244 128.384 993.874 Q126.139 993.504 123.731 992.763 L123.731 988.064 Q125.814 989.198 128.037 989.754 Q130.259 990.309 132.736 990.309 Q136.74 990.309 139.078 988.203 Q141.416 986.096 141.416 982.485 Q141.416 978.874 139.078 976.768 Q136.74 974.661 132.736 974.661 Q130.861 974.661 128.986 975.078 Q127.134 975.494 125.189 976.374 L125.189 959.013 Z" fill="#000000" fill-rule="nonzero" fill-opacity="1" /><path clip-path="url(#clip120)" d="M165.305 962.092 Q161.694 962.092 159.865 965.657 Q158.06 969.198 158.06 976.328 Q158.06 983.434 159.865 986.999 Q161.694 990.541 165.305 990.541 Q168.939 990.541 170.745 986.999 Q172.573 983.434 172.573 976.328 Q172.573 969.198 170.745 965.657 Q168.939 962.092 165.305 962.092 M165.305 958.388 Q171.115 958.388 174.171 962.995 Q177.249 967.578 177.249 976.328 Q177.249 985.055 174.171 989.661 Q171.115 994.244 165.305 994.244 Q159.495 994.244 156.416 989.661 Q153.361 985.055 153.361 976.328 Q153.361 967.578 156.416 962.995 Q159.495 958.388 165.305 958.388 Z" fill="#000000" fill-rule="nonzero" fill-opacity="1" /><path clip-path="url(#clip120)" d="M95.7915 578.843 L103.43 578.843 L103.43 552.477 L95.1202 554.144 L95.1202 549.885 L103.384 548.218 L108.06 548.218 L108.06 578.843 L115.699 578.843 L115.699 582.778 L95.7915 582.778 L95.7915 578.843 Z" fill="#000000" fill-rule="nonzero" fill-opacity="1" /><path clip-path="url(#clip120)" d="M135.143 551.297 Q131.532 551.297 129.703 554.862 Q127.898 558.403 127.898 565.533 Q127.898 572.639 129.703 576.204 Q131.532 579.746 135.143 579.746 Q138.777 579.746 140.583 576.204 Q142.412 572.639 142.412 565.533 Q142.412 558.403 140.583 554.862 Q138.777 551.297 135.143 551.297 M135.143 547.593 Q140.953 547.593 144.009 552.2 Q147.087 556.783 147.087 565.533 Q147.087 574.26 144.009 578.866 Q140.953 583.45 135.143 583.45 Q129.333 583.45 126.254 578.866 Q123.199 574.26 123.199 565.533 Q123.199 556.783 126.254 552.2 Q129.333 547.593 135.143 547.593 Z" fill="#000000" fill-rule="nonzero" fill-opacity="1" /><path clip-path="url(#clip120)" d="M165.305 551.297 Q161.694 551.297 159.865 554.862 Q158.06 558.403 158.06 565.533 Q158.06 572.639 159.865 576.204 Q161.694 579.746 165.305 579.746 Q168.939 579.746 170.745 576.204 Q172.573 572.639 172.573 565.533 Q172.573 558.403 170.745 554.862 Q168.939 551.297 165.305 551.297 M165.305 547.593 Q171.115 547.593 174.171 552.2 Q177.249 556.783 177.249 565.533 Q177.249 574.26 174.171 578.866 Q171.115 583.45 165.305 583.45 Q159.495 583.45 156.416 578.866 Q153.361 574.26 153.361 565.533 Q153.361 556.783 156.416 552.2 Q159.495 547.593 165.305 547.593 Z" fill="#000000" fill-rule="nonzero" fill-opacity="1" /><path clip-path="url(#clip120)" d="M95.7915 168.048 L103.43 168.048 L103.43 141.683 L95.1202 143.349 L95.1202 139.09 L103.384 137.423 L108.06 137.423 L108.06 168.048 L115.699 168.048 L115.699 171.983 L95.7915 171.983 L95.7915 168.048 Z" fill="#000000" fill-rule="nonzero" fill-opacity="1" /><path clip-path="url(#clip120)" d="M125.189 137.423 L143.546 137.423 L143.546 141.359 L129.472 141.359 L129.472 149.831 Q130.49 149.484 131.509 149.321 Q132.527 149.136 133.546 149.136 Q139.333 149.136 142.712 152.308 Q146.092 155.479 146.092 160.895 Q146.092 166.474 142.62 169.576 Q139.148 172.655 132.828 172.655 Q130.652 172.655 128.384 172.284 Q126.139 171.914 123.731 171.173 L123.731 166.474 Q125.814 167.608 128.037 168.164 Q130.259 168.72 132.736 168.72 Q136.74 168.72 139.078 166.613 Q141.416 164.507 141.416 160.895 Q141.416 157.284 139.078 155.178 Q136.74 153.071 132.736 153.071 Q130.861 153.071 128.986 153.488 Q127.134 153.905 125.189 154.784 L125.189 137.423 Z" fill="#000000" fill-rule="nonzero" fill-opacity="1" /><path clip-path="url(#clip120)" d="M165.305 140.502 Q161.694 140.502 159.865 144.067 Q158.06 147.609 158.06 154.738 Q158.06 161.845 159.865 165.409 Q161.694 168.951 165.305 168.951 Q168.939 168.951 170.745 165.409 Q172.573 161.845 172.573 154.738 Q172.573 147.609 170.745 144.067 Q168.939 140.502 165.305 140.502 M165.305 136.798 Q171.115 136.798 174.171 141.405 Q177.249 145.988 177.249 154.738 Q177.249 163.465 174.171 168.071 Q171.115 172.655 165.305 172.655 Q159.495 172.655 156.416 168.071 Q153.361 163.465 153.361 154.738 Q153.361 145.988 156.416 141.405 Q159.495 136.798 165.305 136.798 Z" fill="#000000" fill-rule="nonzero" fill-opacity="1" /><path clip-path="url(#clip120)" d="M1.37616 1013.77 L1.37616 1006.68 L33.902 989.443 L1.37616 989.443 L1.37616 984.339 L40.2562 984.339 L40.2562 991.423 L7.73029 1008.66 L40.2562 1008.66 L40.2562 1013.77 L1.37616 1013.77 Z" fill="#000000" fill-rule="nonzero" fill-opacity="1" /><path clip-path="url(#clip120)" d="M28.7458 974.574 L11.0896 974.574 L11.0896 969.782 L28.5635 969.782 Q32.7041 969.782 34.7874 968.167 Q36.8447 966.553 36.8447 963.324 Q36.8447 959.444 34.3708 957.204 Q31.8968 954.938 27.626 954.938 L11.0896 954.938 L11.0896 950.147 L40.2562 950.147 L40.2562 954.938 L35.777 954.938 Q38.4333 956.683 39.7353 959.001 Q41.0114 961.292 41.0114 964.339 Q41.0114 969.365 37.8864 971.969 Q34.7614 974.574 28.7458 974.574 M10.3865 962.516 L10.3865 962.516 Z" fill="#000000" fill-rule="nonzero" fill-opacity="1" /><path clip-path="url(#clip120)" d="M-0.264459 940.277 L-0.264459 935.485 L40.2562 935.485 L40.2562 940.277 L-0.264459 940.277 Z" fill="#000000" fill-rule="nonzero" fill-opacity="1" /><path clip-path="url(#clip120)" d="M-0.264459 925.459 L-0.264459 920.668 L40.2562 920.668 L40.2562 925.459 L-0.264459 925.459 Z" fill="#000000" fill-rule="nonzero" fill-opacity="1" /><path clip-path="url(#clip120)" d="M11.949 892.048 L16.4802 892.048 Q15.4386 894.079 14.9178 896.267 Q14.3969 898.454 14.3969 900.798 Q14.3969 904.366 15.4907 906.163 Q16.5844 907.933 18.7719 907.933 Q20.4386 907.933 21.4021 906.657 Q22.3396 905.381 23.199 901.527 L23.5635 899.887 Q24.6573 894.782 26.6625 892.647 Q28.6416 890.486 32.2093 890.486 Q36.2718 890.486 38.6416 893.715 Q41.0114 896.918 41.0114 902.543 Q41.0114 904.887 40.5426 907.439 Q40.0999 909.965 39.1885 912.777 L34.2406 912.777 Q35.6208 910.121 36.3239 907.543 Q37.001 904.965 37.001 902.439 Q37.001 899.053 35.8551 897.23 Q34.6833 895.407 32.5739 895.407 Q30.6208 895.407 29.5791 896.736 Q28.5375 898.038 27.5739 902.491 L27.1833 904.157 Q26.2458 908.61 24.3187 910.59 Q22.3656 912.569 18.9802 912.569 Q14.8657 912.569 12.6261 909.652 Q10.3865 906.735 10.3865 901.371 Q10.3865 898.715 10.7771 896.371 Q11.1678 894.027 11.949 892.048 Z" fill="#000000" fill-rule="nonzero" fill-opacity="1" /><path clip-path="url(#clip120)" d="M35.8812 878.22 L51.3498 878.22 L51.3498 883.038 L11.0896 883.038 L11.0896 878.22 L15.5167 878.22 Q12.9126 876.71 11.6626 874.418 Q10.3865 872.1 10.3865 868.897 Q10.3865 863.585 14.6053 860.277 Q18.824 856.944 25.6989 856.944 Q32.5739 856.944 36.7926 860.277 Q41.0114 863.585 41.0114 868.897 Q41.0114 872.1 39.7614 874.418 Q38.4853 876.71 35.8812 878.22 M25.6989 861.918 Q20.4125 861.918 17.4177 864.105 Q14.3969 866.267 14.3969 870.069 Q14.3969 873.871 17.4177 876.059 Q20.4125 878.22 25.6989 878.22 Q30.9854 878.22 34.0062 876.059 Q37.001 873.871 37.001 870.069 Q37.001 866.267 34.0062 864.105 Q30.9854 861.918 25.6989 861.918 Z" fill="#000000" fill-rule="nonzero" fill-opacity="1" /><path clip-path="url(#clip120)" d="M25.5948 835.746 Q25.5948 841.554 26.9229 843.793 Q28.251 846.033 31.4541 846.033 Q34.0062 846.033 35.5166 844.366 Q37.001 842.673 37.001 839.783 Q37.001 835.798 34.1885 833.403 Q31.35 830.981 26.6625 830.981 L25.5948 830.981 L25.5948 835.746 M23.6156 826.189 L40.2562 826.189 L40.2562 830.981 L35.8291 830.981 Q38.4853 832.621 39.7614 835.069 Q41.0114 837.517 41.0114 841.059 Q41.0114 845.538 38.5114 848.194 Q35.9853 850.824 31.7666 850.824 Q26.8448 850.824 24.3448 847.543 Q21.8448 844.236 21.8448 837.699 L21.8448 830.981 L21.3761 830.981 Q18.0688 830.981 16.2719 833.168 Q14.449 835.33 14.449 839.262 Q14.449 841.762 15.048 844.132 Q15.6469 846.501 16.8448 848.689 L12.4178 848.689 Q11.4021 846.059 10.9074 843.585 Q10.3865 841.111 10.3865 838.767 Q10.3865 832.439 13.6678 829.314 Q16.949 826.189 23.6156 826.189 Z" fill="#000000" fill-rule="nonzero" fill-opacity="1" /><path clip-path="url(#clip120)" d="M12.2094 795.33 L16.6886 795.33 Q15.5688 797.361 15.0219 799.418 Q14.449 801.45 14.449 803.533 Q14.449 808.194 17.4177 810.772 Q20.3604 813.351 25.6989 813.351 Q31.0375 813.351 34.0062 810.772 Q36.9489 808.194 36.9489 803.533 Q36.9489 801.45 36.402 799.418 Q35.8291 797.361 34.7093 795.33 L39.1364 795.33 Q40.0739 797.335 40.5426 799.496 Q41.0114 801.632 41.0114 804.054 Q41.0114 810.642 36.8708 814.522 Q32.7302 818.403 25.6989 818.403 Q18.5636 818.403 14.475 814.496 Q10.3865 810.564 10.3865 803.741 Q10.3865 801.528 10.8553 799.418 Q11.298 797.309 12.2094 795.33 Z" fill="#000000" fill-rule="nonzero" fill-opacity="1" /><path clip-path="url(#clip120)" d="M24.475 762.049 L26.8187 762.049 L26.8187 784.08 Q31.7666 783.767 34.3708 781.111 Q36.9489 778.429 36.9489 773.663 Q36.9489 770.903 36.2718 768.325 Q35.5947 765.721 34.2406 763.169 L38.7718 763.169 Q39.8655 765.747 40.4384 768.455 Q41.0114 771.163 41.0114 773.95 Q41.0114 780.929 36.9489 785.017 Q32.8864 789.08 25.9594 789.08 Q18.7979 789.08 14.6053 785.226 Q10.3865 781.346 10.3865 774.783 Q10.3865 768.898 14.1886 765.486 Q17.9646 762.049 24.475 762.049 M23.0687 766.84 Q19.1365 766.892 16.7927 769.054 Q14.449 771.189 14.449 774.731 Q14.449 778.741 16.7146 781.163 Q18.9802 783.559 23.0948 783.924 L23.0687 766.84 Z" fill="#000000" fill-rule="nonzero" fill-opacity="1" /><path clip-path="url(#clip120)" d="M15.5167 718.039 L-0.264459 718.039 L-0.264459 713.247 L40.2562 713.247 L40.2562 718.039 L35.8812 718.039 Q38.4853 719.549 39.7614 721.867 Q41.0114 724.158 41.0114 727.387 Q41.0114 732.674 36.7926 736.007 Q32.5739 739.314 25.6989 739.314 Q18.824 739.314 14.6053 736.007 Q10.3865 732.674 10.3865 727.387 Q10.3865 724.158 11.6626 721.867 Q12.9126 719.549 15.5167 718.039 M25.6989 734.367 Q30.9854 734.367 34.0062 732.205 Q37.001 730.018 37.001 726.216 Q37.001 722.414 34.0062 720.226 Q30.9854 718.039 25.6989 718.039 Q20.4125 718.039 17.4177 720.226 Q14.3969 722.414 14.3969 726.216 Q14.3969 730.018 17.4177 732.205 Q20.4125 734.367 25.6989 734.367 Z" fill="#000000" fill-rule="nonzero" fill-opacity="1" /><path clip-path="url(#clip120)" d="M11.0896 703.377 L11.0896 698.586 L40.2562 698.586 L40.2562 703.377 L11.0896 703.377 M-0.264459 703.377 L-0.264459 698.586 L5.80322 698.586 L5.80322 703.377 L-0.264459 703.377 Z" fill="#000000" fill-rule="nonzero" fill-opacity="1" /><path clip-path="url(#clip120)" d="M16.6886 665.851 Q13.4594 664.054 11.923 661.554 Q10.3865 659.055 10.3865 655.669 Q10.3865 651.112 13.5896 648.638 Q16.7667 646.164 22.6521 646.164 L40.2562 646.164 L40.2562 650.982 L22.8083 650.982 Q18.6156 650.982 16.5844 652.466 Q14.5532 653.95 14.5532 656.997 Q14.5532 660.721 17.0271 662.883 Q19.5011 665.044 23.7719 665.044 L40.2562 665.044 L40.2562 669.862 L22.8083 669.862 Q18.5896 669.862 16.5844 671.346 Q14.5532 672.83 14.5532 675.929 Q14.5532 679.601 17.0532 681.763 Q19.5271 683.924 23.7719 683.924 L40.2562 683.924 L40.2562 688.742 L11.0896 688.742 L11.0896 683.924 L15.6209 683.924 Q12.9386 682.284 11.6626 679.992 Q10.3865 677.7 10.3865 674.549 Q10.3865 671.372 12.0011 669.159 Q13.6157 666.919 16.6886 665.851 Z" fill="#000000" fill-rule="nonzero" fill-opacity="1" /><path clip-path="url(#clip120)" d="M24.475 611.659 L26.8187 611.659 L26.8187 633.69 Q31.7666 633.378 34.3708 630.721 Q36.9489 628.039 36.9489 623.273 Q36.9489 620.513 36.2718 617.935 Q35.5947 615.331 34.2406 612.779 L38.7718 612.779 Q39.8655 615.357 40.4384 618.065 Q41.0114 620.773 41.0114 623.56 Q41.0114 630.539 36.9489 634.628 Q32.8864 638.69 25.9594 638.69 Q18.7979 638.69 14.6053 634.836 Q10.3865 630.956 10.3865 624.393 Q10.3865 618.508 14.1886 615.096 Q17.9646 611.659 24.475 611.659 M23.0687 616.451 Q19.1365 616.503 16.7927 618.664 Q14.449 620.8 14.449 624.341 Q14.449 628.352 16.7146 630.773 Q18.9802 633.169 23.0948 633.534 L23.0687 616.451 Z" fill="#000000" fill-rule="nonzero" fill-opacity="1" /><path clip-path="url(#clip120)" d="M22.6521 579.55 L40.2562 579.55 L40.2562 584.341 L22.8083 584.341 Q18.6677 584.341 16.6105 585.956 Q14.5532 587.571 14.5532 590.8 Q14.5532 594.68 17.0271 596.919 Q19.5011 599.159 23.7719 599.159 L40.2562 599.159 L40.2562 603.977 L11.0896 603.977 L11.0896 599.159 L15.6209 599.159 Q12.9907 597.44 11.6886 595.123 Q10.3865 592.779 10.3865 589.732 Q10.3865 584.706 13.5115 582.128 Q16.6105 579.55 22.6521 579.55 Z" fill="#000000" fill-rule="nonzero" fill-opacity="1" /><path clip-path="url(#clip120)" d="M11.949 551.399 L16.4802 551.399 Q15.4386 553.43 14.9178 555.618 Q14.3969 557.805 14.3969 560.149 Q14.3969 563.716 15.4907 565.513 Q16.5844 567.284 18.7719 567.284 Q20.4386 567.284 21.4021 566.008 Q22.3396 564.732 23.199 560.878 L23.5635 559.237 Q24.6573 554.133 26.6625 551.998 Q28.6416 549.836 32.2093 549.836 Q36.2718 549.836 38.6416 553.065 Q41.0114 556.269 41.0114 561.894 Q41.0114 564.237 40.5426 566.789 Q40.0999 569.315 39.1885 572.128 L34.2406 572.128 Q35.6208 569.472 36.3239 566.894 Q37.001 564.315 37.001 561.789 Q37.001 558.404 35.8551 556.581 Q34.6833 554.758 32.5739 554.758 Q30.6208 554.758 29.5791 556.086 Q28.5375 557.388 27.5739 561.841 L27.1833 563.508 Q26.2458 567.961 24.3187 569.94 Q22.3656 571.92 18.9802 571.92 Q14.8657 571.92 12.6261 569.003 Q10.3865 566.086 10.3865 560.722 Q10.3865 558.065 10.7771 555.722 Q11.1678 553.378 11.949 551.399 Z" fill="#000000" fill-rule="nonzero" fill-opacity="1" /><path clip-path="url(#clip120)" d="M11.0896 542.206 L11.0896 537.415 L40.2562 537.415 L40.2562 542.206 L11.0896 542.206 M-0.264459 542.206 L-0.264459 537.415 L5.80322 537.415 L5.80322 542.206 L-0.264459 542.206 Z" fill="#000000" fill-rule="nonzero" fill-opacity="1" /><path clip-path="url(#clip120)" d="M14.449 516.087 Q14.449 519.941 17.4698 522.18 Q20.4646 524.42 25.6989 524.42 Q30.9333 524.42 33.9541 522.206 Q36.9489 519.967 36.9489 516.087 Q36.9489 512.258 33.9281 510.019 Q30.9072 507.779 25.6989 507.779 Q20.5167 507.779 17.4959 510.019 Q14.449 512.258 14.449 516.087 M10.3865 516.087 Q10.3865 509.837 14.449 506.269 Q18.5115 502.701 25.6989 502.701 Q32.8604 502.701 36.9489 506.269 Q41.0114 509.837 41.0114 516.087 Q41.0114 522.363 36.9489 525.93 Q32.8604 529.472 25.6989 529.472 Q18.5115 529.472 14.449 525.93 Q10.3865 522.363 10.3865 516.087 Z" fill="#000000" fill-rule="nonzero" fill-opacity="1" /><path clip-path="url(#clip120)" d="M22.6521 470.514 L40.2562 470.514 L40.2562 475.305 L22.8083 475.305 Q18.6677 475.305 16.6105 476.92 Q14.5532 478.535 14.5532 481.764 Q14.5532 485.644 17.0271 487.884 Q19.5011 490.123 23.7719 490.123 L40.2562 490.123 L40.2562 494.941 L11.0896 494.941 L11.0896 490.123 L15.6209 490.123 Q12.9907 488.404 11.6886 486.087 Q10.3865 483.743 10.3865 480.696 Q10.3865 475.67 13.5115 473.092 Q16.6105 470.514 22.6521 470.514 Z" fill="#000000" fill-rule="nonzero" fill-opacity="1" /><path clip-path="url(#clip120)" d="M788.991 8.64 L796.861 8.64 L816.016 44.7799 L816.016 8.64 L821.687 8.64 L821.687 51.84 L813.817 51.84 L794.662 15.7001 L794.662 51.84 L788.991 51.84 L788.991 8.64 Z" fill="#000000" fill-rule="nonzero" fill-opacity="1" /><path clip-path="url(#clip120)" d="M832.538 39.0507 L832.538 19.4328 L837.862 19.4328 L837.862 38.8482 Q837.862 43.4488 839.656 45.7636 Q841.45 48.0495 845.038 48.0495 Q849.349 48.0495 851.838 45.3007 Q854.355 42.5519 854.355 37.8065 L854.355 19.4328 L859.679 19.4328 L859.679 51.84 L854.355 51.84 L854.355 46.8632 Q852.416 49.8145 849.841 51.2613 Q847.295 52.6791 843.91 52.6791 Q838.325 52.6791 835.432 49.2069 Q832.538 45.7347 832.538 39.0507 M845.935 18.6515 L845.935 18.6515 Z" fill="#000000" fill-rule="nonzero" fill-opacity="1" /><path clip-path="url(#clip120)" d="M870.645 6.81709 L875.97 6.81709 L875.97 51.84 L870.645 51.84 L870.645 6.81709 Z" fill="#000000" fill-rule="nonzero" fill-opacity="1" /><path clip-path="url(#clip120)" d="M887.11 6.81709 L892.434 6.81709 L892.434 51.84 L887.11 51.84 L887.11 6.81709 Z" fill="#000000" fill-rule="nonzero" fill-opacity="1" /><path clip-path="url(#clip120)" d="M924.233 20.3876 L924.233 25.4223 Q921.976 24.2649 919.546 23.6862 Q917.115 23.1075 914.511 23.1075 Q910.547 23.1075 908.55 24.3228 Q906.583 25.5381 906.583 27.9686 Q906.583 29.8204 908.001 30.891 Q909.418 31.9327 913.701 32.8876 L915.524 33.2926 Q921.195 34.5079 923.568 36.7359 Q925.969 38.935 925.969 42.8991 Q925.969 47.4129 922.381 50.046 Q918.822 52.6791 912.572 52.6791 Q909.968 52.6791 907.133 52.1583 Q904.326 51.6664 901.201 50.6537 L901.201 45.156 Q904.152 46.6896 907.017 47.4708 Q909.881 48.2231 912.688 48.2231 Q916.45 48.2231 918.475 46.95 Q920.501 45.6479 920.501 43.3042 Q920.501 41.134 919.025 39.9766 Q917.578 38.8192 912.63 37.7486 L910.778 37.3146 Q905.83 36.273 903.631 34.1318 Q901.432 31.9616 901.432 28.2001 Q901.432 23.6283 904.673 21.1399 Q907.914 18.6515 913.874 18.6515 Q916.826 18.6515 919.43 19.0855 Q922.034 19.5196 924.233 20.3876 Z" fill="#000000" fill-rule="nonzero" fill-opacity="1" /><path clip-path="url(#clip120)" d="M939.598 46.9789 L939.598 64.1663 L934.245 64.1663 L934.245 19.4328 L939.598 19.4328 L939.598 24.3517 Q941.276 21.4582 943.822 20.0693 Q946.397 18.6515 949.956 18.6515 Q955.859 18.6515 959.534 23.339 Q963.238 28.0265 963.238 35.6653 Q963.238 43.3042 959.534 47.9916 Q955.859 52.6791 949.956 52.6791 Q946.397 52.6791 943.822 51.2902 Q941.276 49.8724 939.598 46.9789 M957.711 35.6653 Q957.711 29.7915 955.28 26.464 Q952.879 23.1075 948.654 23.1075 Q944.43 23.1075 941.999 26.464 Q939.598 29.7915 939.598 35.6653 Q939.598 41.5391 941.999 44.8956 Q944.43 48.2231 948.654 48.2231 Q952.879 48.2231 955.28 44.8956 Q957.711 41.5391 957.711 35.6653 Z" fill="#000000" fill-rule="nonzero" fill-opacity="1" /><path clip-path="url(#clip120)" d="M986.791 35.5496 Q980.338 35.5496 977.85 37.0253 Q975.361 38.501 975.361 42.06 Q975.361 44.8956 977.213 46.5738 Q979.094 48.2231 982.306 48.2231 Q986.733 48.2231 989.395 45.0981 Q992.086 41.9442 992.086 36.7359 L992.086 35.5496 L986.791 35.5496 M997.41 33.3505 L997.41 51.84 L992.086 51.84 L992.086 46.921 Q990.263 49.8724 987.543 51.2902 Q984.823 52.6791 980.888 52.6791 Q975.911 52.6791 972.96 49.9014 Q970.037 47.0947 970.037 42.4072 Q970.037 36.9385 973.683 34.1607 Q977.358 31.3829 984.621 31.3829 L992.086 31.3829 L992.086 30.8621 Q992.086 27.1874 989.655 25.1908 Q987.254 23.1654 982.884 23.1654 Q980.107 23.1654 977.474 23.8309 Q974.841 24.4964 972.41 25.8274 L972.41 20.9085 Q975.332 19.78 978.081 19.2302 Q980.83 18.6515 983.434 18.6515 Q990.465 18.6515 993.938 22.2973 Q997.41 25.9431 997.41 33.3505 Z" fill="#000000" fill-rule="nonzero" fill-opacity="1" /><path clip-path="url(#clip120)" d="M1031.7 20.677 L1031.7 25.6538 Q1029.44 24.4096 1027.16 23.802 Q1024.9 23.1654 1022.58 23.1654 Q1017.4 23.1654 1014.54 26.464 Q1011.67 29.7336 1011.67 35.6653 Q1011.67 41.597 1014.54 44.8956 Q1017.4 48.1653 1022.58 48.1653 Q1024.9 48.1653 1027.16 47.5576 Q1029.44 46.921 1031.7 45.6768 L1031.7 50.5958 Q1029.47 51.6375 1027.07 52.1583 Q1024.7 52.6791 1022 52.6791 Q1014.68 52.6791 1010.37 48.0784 Q1006.06 43.4778 1006.06 35.6653 Q1006.06 27.7371 1010.4 23.1943 Q1014.77 18.6515 1022.35 18.6515 Q1024.81 18.6515 1027.16 19.1724 Q1029.5 19.6642 1031.7 20.677 Z" fill="#000000" fill-rule="nonzero" fill-opacity="1" /><path clip-path="url(#clip120)" d="M1068.68 34.3054 L1068.68 36.9095 L1044.2 36.9095 Q1044.55 42.4072 1047.5 45.3007 Q1050.48 48.1653 1055.77 48.1653 Q1058.84 48.1653 1061.7 47.4129 Q1064.6 46.6606 1067.43 45.156 L1067.43 50.1907 Q1064.57 51.406 1061.56 52.0425 Q1058.55 52.6791 1055.45 52.6791 Q1047.7 52.6791 1043.16 48.1653 Q1038.64 43.6514 1038.64 35.9547 Q1038.64 27.9975 1042.92 23.339 Q1047.24 18.6515 1054.53 18.6515 Q1061.07 18.6515 1064.86 22.876 Q1068.68 27.0716 1068.68 34.3054 M1063.35 32.7429 Q1063.29 28.3737 1060.89 25.7695 Q1058.52 23.1654 1054.59 23.1654 Q1050.13 23.1654 1047.44 25.6827 Q1044.78 28.2001 1044.37 32.7718 L1063.35 32.7429 Z" fill="#000000" fill-rule="nonzero" fill-opacity="1" /><path clip-path="url(#clip120)" d="M1117.58 24.3517 L1117.58 6.81709 L1122.9 6.81709 L1122.9 51.84 L1117.58 51.84 L1117.58 46.9789 Q1115.9 49.8724 1113.32 51.2902 Q1110.78 52.6791 1107.19 52.6791 Q1101.32 52.6791 1097.61 47.9916 Q1093.94 43.3042 1093.94 35.6653 Q1093.94 28.0265 1097.61 23.339 Q1101.32 18.6515 1107.19 18.6515 Q1110.78 18.6515 1113.32 20.0693 Q1115.9 21.4582 1117.58 24.3517 M1099.43 35.6653 Q1099.43 41.5391 1101.84 44.8956 Q1104.27 48.2231 1108.49 48.2231 Q1112.72 48.2231 1115.15 44.8956 Q1117.58 41.5391 1117.58 35.6653 Q1117.58 29.7915 1115.15 26.464 Q1112.72 23.1075 1108.49 23.1075 Q1104.27 23.1075 1101.84 26.464 Q1099.43 29.7915 1099.43 35.6653 Z" fill="#000000" fill-rule="nonzero" fill-opacity="1" /><path clip-path="url(#clip120)" d="M1133.87 19.4328 L1139.19 19.4328 L1139.19 51.84 L1133.87 51.84 L1133.87 19.4328 M1133.87 6.81709 L1139.19 6.81709 L1139.19 13.559 L1133.87 13.559 L1133.87 6.81709 Z" fill="#000000" fill-rule="nonzero" fill-opacity="1" /><path clip-path="url(#clip120)" d="M1175.56 25.6538 Q1177.56 22.0659 1180.34 20.3587 Q1183.11 18.6515 1186.88 18.6515 Q1191.94 18.6515 1194.69 22.2105 Q1197.44 25.7406 1197.44 32.2799 L1197.44 51.84 L1192.08 51.84 L1192.08 32.4535 Q1192.08 27.795 1190.44 25.5381 Q1188.79 23.2811 1185.4 23.2811 Q1181.26 23.2811 1178.86 26.03 Q1176.46 28.7788 1176.46 33.5241 L1176.46 51.84 L1171.11 51.84 L1171.11 32.4535 Q1171.11 27.7661 1169.46 25.5381 Q1167.81 23.2811 1164.36 23.2811 Q1160.29 23.2811 1157.88 26.0589 Q1155.48 28.8077 1155.48 33.5241 L1155.48 51.84 L1150.13 51.84 L1150.13 19.4328 L1155.48 19.4328 L1155.48 24.4675 Q1157.3 21.4872 1159.85 20.0693 Q1162.4 18.6515 1165.9 18.6515 Q1169.43 18.6515 1171.89 20.4455 Q1174.38 22.2395 1175.56 25.6538 Z" fill="#000000" fill-rule="nonzero" fill-opacity="1" /><path clip-path="url(#clip120)" d="M1235.78 34.3054 L1235.78 36.9095 L1211.3 36.9095 Q1211.64 42.4072 1214.6 45.3007 Q1217.58 48.1653 1222.87 48.1653 Q1225.94 48.1653 1228.8 47.4129 Q1231.7 46.6606 1234.53 45.156 L1234.53 50.1907 Q1231.67 51.406 1228.66 52.0425 Q1225.65 52.6791 1222.55 52.6791 Q1214.8 52.6791 1210.26 48.1653 Q1205.74 43.6514 1205.74 35.9547 Q1205.74 27.9975 1210.02 23.339 Q1214.34 18.6515 1221.63 18.6515 Q1228.17 18.6515 1231.96 22.876 Q1235.78 27.0716 1235.78 34.3054 M1230.45 32.7429 Q1230.39 28.3737 1227.99 25.7695 Q1225.62 23.1654 1221.69 23.1654 Q1217.23 23.1654 1214.54 25.6827 Q1211.88 28.2001 1211.47 32.7718 L1230.45 32.7429 Z" fill="#000000" fill-rule="nonzero" fill-opacity="1" /><path clip-path="url(#clip120)" d="M1271.45 32.2799 L1271.45 51.84 L1266.13 51.84 L1266.13 32.4535 Q1266.13 27.8529 1264.34 25.567 Q1262.54 23.2811 1258.95 23.2811 Q1254.64 23.2811 1252.15 26.03 Q1249.67 28.7788 1249.67 33.5241 L1249.67 51.84 L1244.31 51.84 L1244.31 19.4328 L1249.67 19.4328 L1249.67 24.4675 Q1251.58 21.545 1254.15 20.0983 Q1256.75 18.6515 1260.14 18.6515 Q1265.72 18.6515 1268.59 22.1237 Q1271.45 25.567 1271.45 32.2799 Z" fill="#000000" fill-rule="nonzero" fill-opacity="1" /><path clip-path="url(#clip120)" d="M1302.73 20.3876 L1302.73 25.4223 Q1300.48 24.2649 1298.04 23.6862 Q1295.61 23.1075 1293.01 23.1075 Q1289.05 23.1075 1287.05 24.3228 Q1285.08 25.5381 1285.08 27.9686 Q1285.08 29.8204 1286.5 30.891 Q1287.92 31.9327 1292.2 32.8876 L1294.02 33.2926 Q1299.69 34.5079 1302.07 36.7359 Q1304.47 38.935 1304.47 42.8991 Q1304.47 47.4129 1300.88 50.046 Q1297.32 52.6791 1291.07 52.6791 Q1288.47 52.6791 1285.63 52.1583 Q1282.82 51.6664 1279.7 50.6537 L1279.7 45.156 Q1282.65 46.6896 1285.52 47.4708 Q1288.38 48.2231 1291.19 48.2231 Q1294.95 48.2231 1296.97 46.95 Q1299 45.6479 1299 43.3042 Q1299 41.134 1297.52 39.9766 Q1296.08 38.8192 1291.13 37.7486 L1289.28 37.3146 Q1284.33 36.273 1282.13 34.1318 Q1279.93 31.9616 1279.93 28.2001 Q1279.93 23.6283 1283.17 21.1399 Q1286.41 18.6515 1292.37 18.6515 Q1295.32 18.6515 1297.93 19.0855 Q1300.53 19.5196 1302.73 20.3876 Z" fill="#000000" fill-rule="nonzero" fill-opacity="1" /><path clip-path="url(#clip120)" d="M1312.95 19.4328 L1318.27 19.4328 L1318.27 51.84 L1312.95 51.84 L1312.95 19.4328 M1312.95 6.81709 L1318.27 6.81709 L1318.27 13.559 L1312.95 13.559 L1312.95 6.81709 Z" fill="#000000" fill-rule="nonzero" fill-opacity="1" /><path clip-path="url(#clip120)" d="M1341.97 23.1654 Q1337.69 23.1654 1335.2 26.5218 Q1332.71 29.8494 1332.71 35.6653 Q1332.71 41.4813 1335.17 44.8377 Q1337.66 48.1653 1341.97 48.1653 Q1346.22 48.1653 1348.71 44.8088 Q1351.2 41.4523 1351.2 35.6653 Q1351.2 29.9072 1348.71 26.5508 Q1346.22 23.1654 1341.97 23.1654 M1341.97 18.6515 Q1348.91 18.6515 1352.88 23.1654 Q1356.84 27.6792 1356.84 35.6653 Q1356.84 43.6225 1352.88 48.1653 Q1348.91 52.6791 1341.97 52.6791 Q1334.99 52.6791 1331.03 48.1653 Q1327.1 43.6225 1327.1 35.6653 Q1327.1 27.6792 1331.03 23.1654 Q1334.99 18.6515 1341.97 18.6515 Z" fill="#000000" fill-rule="nonzero" fill-opacity="1" /><path clip-path="url(#clip120)" d="M1392.6 32.2799 L1392.6 51.84 L1387.28 51.84 L1387.28 32.4535 Q1387.28 27.8529 1385.49 25.567 Q1383.69 23.2811 1380.1 23.2811 Q1375.79 23.2811 1373.3 26.03 Q1370.82 28.7788 1370.82 33.5241 L1370.82 51.84 L1365.46 51.84 L1365.46 19.4328 L1370.82 19.4328 L1370.82 24.4675 Q1372.73 21.545 1375.3 20.0983 Q1377.91 18.6515 1381.29 18.6515 Q1386.88 18.6515 1389.74 22.1237 Q1392.6 25.567 1392.6 32.2799 Z" fill="#000000" fill-rule="nonzero" fill-opacity="1" /><path clip-path="url(#clip120)" d="M1418.24 19.4328 L1423.88 19.4328 L1434.01 46.6317 L1444.14 19.4328 L1449.78 19.4328 L1437.63 51.84 L1430.39 51.84 L1418.24 19.4328 Z" fill="#000000" fill-rule="nonzero" fill-opacity="1" /><path clip-path="url(#clip120)" d="M1477.79 20.3876 L1477.79 25.4223 Q1475.53 24.2649 1473.1 23.6862 Q1470.67 23.1075 1468.07 23.1075 Q1464.1 23.1075 1462.11 24.3228 Q1460.14 25.5381 1460.14 27.9686 Q1460.14 29.8204 1461.56 30.891 Q1462.97 31.9327 1467.26 32.8876 L1469.08 33.2926 Q1474.75 34.5079 1477.12 36.7359 Q1479.53 38.935 1479.53 42.8991 Q1479.53 47.4129 1475.94 50.046 Q1472.38 52.6791 1466.13 52.6791 Q1463.52 52.6791 1460.69 52.1583 Q1457.88 51.6664 1454.76 50.6537 L1454.76 45.156 Q1457.71 46.6896 1460.57 47.4708 Q1463.44 48.2231 1466.24 48.2231 Q1470.01 48.2231 1472.03 46.95 Q1474.06 45.6479 1474.06 43.3042 Q1474.06 41.134 1472.58 39.9766 Q1471.13 38.8192 1466.19 37.7486 L1464.33 37.3146 Q1459.39 36.273 1457.19 34.1318 Q1454.99 31.9616 1454.99 28.2001 Q1454.99 23.6283 1458.23 21.1399 Q1461.47 18.6515 1467.43 18.6515 Q1470.38 18.6515 1472.99 19.0855 Q1475.59 19.5196 1477.79 20.3876 Z" fill="#000000" fill-rule="nonzero" fill-opacity="1" /><path clip-path="url(#clip120)" d="M1488.76 44.4905 L1494.86 44.4905 L1494.86 51.84 L1488.76 51.84 L1488.76 44.4905 Z" fill="#000000" fill-rule="nonzero" fill-opacity="1" /><path clip-path="url(#clip120)" d="M1549 20.677 L1549 25.6538 Q1546.74 24.4096 1544.46 23.802 Q1542.2 23.1654 1539.88 23.1654 Q1534.7 23.1654 1531.84 26.464 Q1528.98 29.7336 1528.98 35.6653 Q1528.98 41.597 1531.84 44.8956 Q1534.7 48.1653 1539.88 48.1653 Q1542.2 48.1653 1544.46 47.5576 Q1546.74 46.921 1549 45.6768 L1549 50.5958 Q1546.77 51.6375 1544.37 52.1583 Q1542 52.6791 1539.31 52.6791 Q1531.98 52.6791 1527.67 48.0784 Q1523.36 43.4778 1523.36 35.6653 Q1523.36 27.7371 1527.7 23.1943 Q1532.07 18.6515 1539.65 18.6515 Q1542.11 18.6515 1544.46 19.1724 Q1546.8 19.6642 1549 20.677 Z" fill="#000000" fill-rule="nonzero" fill-opacity="1" /><path clip-path="url(#clip120)" d="M1570.82 23.1654 Q1566.53 23.1654 1564.04 26.5218 Q1561.56 29.8494 1561.56 35.6653 Q1561.56 41.4813 1564.02 44.8377 Q1566.5 48.1653 1570.82 48.1653 Q1575.07 48.1653 1577.56 44.8088 Q1580.05 41.4523 1580.05 35.6653 Q1580.05 29.9072 1577.56 26.5508 Q1575.07 23.1654 1570.82 23.1654 M1570.82 18.6515 Q1577.76 18.6515 1581.72 23.1654 Q1585.69 27.6792 1585.69 35.6653 Q1585.69 43.6225 1581.72 48.1653 Q1577.76 52.6791 1570.82 52.6791 Q1563.84 52.6791 1559.88 48.1653 Q1555.94 43.6225 1555.94 35.6653 Q1555.94 27.6792 1559.88 23.1654 Q1563.84 18.6515 1570.82 18.6515 Z" fill="#000000" fill-rule="nonzero" fill-opacity="1" /><path clip-path="url(#clip120)" d="M1607.07 23.1654 Q1602.79 23.1654 1600.3 26.5218 Q1597.81 29.8494 1597.81 35.6653 Q1597.81 41.4813 1600.27 44.8377 Q1602.76 48.1653 1607.07 48.1653 Q1611.32 48.1653 1613.81 44.8088 Q1616.3 41.4523 1616.3 35.6653 Q1616.3 29.9072 1613.81 26.5508 Q1611.32 23.1654 1607.07 23.1654 M1607.07 18.6515 Q1614.02 18.6515 1617.98 23.1654 Q1621.94 27.6792 1621.94 35.6653 Q1621.94 43.6225 1617.98 48.1653 Q1614.02 52.6791 1607.07 52.6791 Q1600.1 52.6791 1596.13 48.1653 Q1592.2 43.6225 1592.2 35.6653 Q1592.2 27.6792 1596.13 23.1654 Q1600.1 18.6515 1607.07 18.6515 Z" fill="#000000" fill-rule="nonzero" fill-opacity="1" /><path clip-path="url(#clip120)" d="M1649.55 24.4096 Q1648.65 23.8888 1647.58 23.6573 Q1646.54 23.3969 1645.27 23.3969 Q1640.75 23.3969 1638.32 26.3482 Q1635.92 29.2707 1635.92 34.7683 L1635.92 51.84 L1630.57 51.84 L1630.57 19.4328 L1635.92 19.4328 L1635.92 24.4675 Q1637.6 21.5161 1640.29 20.0983 Q1642.98 18.6515 1646.83 18.6515 Q1647.38 18.6515 1648.04 18.7383 Q1648.71 18.7962 1649.52 18.9409 L1649.55 24.4096 Z" fill="#000000" fill-rule="nonzero" fill-opacity="1" /><path clip-path="url(#clip120)" d="M1675.42 24.3517 L1675.42 6.81709 L1680.74 6.81709 L1680.74 51.84 L1675.42 51.84 L1675.42 46.9789 Q1673.74 49.8724 1671.16 51.2902 Q1668.62 52.6791 1665.03 52.6791 Q1659.15 52.6791 1655.45 47.9916 Q1651.78 43.3042 1651.78 35.6653 Q1651.78 28.0265 1655.45 23.339 Q1659.15 18.6515 1665.03 18.6515 Q1668.62 18.6515 1671.16 20.0693 Q1673.74 21.4582 1675.42 24.3517 M1657.27 35.6653 Q1657.27 41.5391 1659.67 44.8956 Q1662.11 48.2231 1666.33 48.2231 Q1670.55 48.2231 1672.98 44.8956 Q1675.42 41.5391 1675.42 35.6653 Q1675.42 29.7915 1672.98 26.464 Q1670.55 23.1075 1666.33 23.1075 Q1662.11 23.1075 1659.67 26.464 Q1657.27 29.7915 1657.27 35.6653 Z" fill="#000000" fill-rule="nonzero" fill-opacity="1" /><path clip-path="url(#clip120)" d="M1691.71 19.4328 L1697.03 19.4328 L1697.03 51.84 L1691.71 51.84 L1691.71 19.4328 M1691.71 6.81709 L1697.03 6.81709 L1697.03 13.559 L1691.71 13.559 L1691.71 6.81709 Z" fill="#000000" fill-rule="nonzero" fill-opacity="1" /><path clip-path="url(#clip120)" d="M1735.11 32.2799 L1735.11 51.84 L1729.78 51.84 L1729.78 32.4535 Q1729.78 27.8529 1727.99 25.567 Q1726.2 23.2811 1722.61 23.2811 Q1718.3 23.2811 1715.81 26.03 Q1713.32 28.7788 1713.32 33.5241 L1713.32 51.84 L1707.97 51.84 L1707.97 19.4328 L1713.32 19.4328 L1713.32 24.4675 Q1715.23 21.545 1717.81 20.0983 Q1720.41 18.6515 1723.79 18.6515 Q1729.38 18.6515 1732.24 22.1237 Q1735.11 25.567 1735.11 32.2799 Z" fill="#000000" fill-rule="nonzero" fill-opacity="1" /><path clip-path="url(#clip120)" d="M1760.46 35.5496 Q1754 35.5496 1751.51 37.0253 Q1749.03 38.501 1749.03 42.06 Q1749.03 44.8956 1750.88 46.5738 Q1752.76 48.2231 1755.97 48.2231 Q1760.4 48.2231 1763.06 45.0981 Q1765.75 41.9442 1765.75 36.7359 L1765.75 35.5496 L1760.46 35.5496 M1771.07 33.3505 L1771.07 51.84 L1765.75 51.84 L1765.75 46.921 Q1763.93 49.8724 1761.21 51.2902 Q1758.49 52.6791 1754.55 52.6791 Q1749.58 52.6791 1746.62 49.9014 Q1743.7 47.0947 1743.7 42.4072 Q1743.7 36.9385 1747.35 34.1607 Q1751.02 31.3829 1758.29 31.3829 L1765.75 31.3829 L1765.75 30.8621 Q1765.75 27.1874 1763.32 25.1908 Q1760.92 23.1654 1756.55 23.1654 Q1753.77 23.1654 1751.14 23.8309 Q1748.51 24.4964 1746.07 25.8274 L1746.07 20.9085 Q1749 19.78 1751.75 19.2302 Q1754.49 18.6515 1757.1 18.6515 Q1764.13 18.6515 1767.6 22.2973 Q1771.07 25.9431 1771.07 33.3505 Z" fill="#000000" fill-rule="nonzero" fill-opacity="1" /><path clip-path="url(#clip120)" d="M1787.31 10.2314 L1787.31 19.4328 L1798.27 19.4328 L1798.27 23.5705 L1787.31 23.5705 L1787.31 41.163 Q1787.31 45.1271 1788.38 46.2555 Q1789.48 47.384 1792.8 47.384 L1798.27 47.384 L1798.27 51.84 L1792.8 51.84 Q1786.64 51.84 1784.3 49.5541 Q1781.95 47.2393 1781.95 41.163 L1781.95 23.5705 L1778.05 23.5705 L1778.05 19.4328 L1781.95 19.4328 L1781.95 10.2314 L1787.31 10.2314 Z" fill="#000000" fill-rule="nonzero" fill-opacity="1" /><path clip-path="url(#clip120)" d="M1805.28 19.4328 L1810.6 19.4328 L1810.6 51.84 L1805.28 51.84 L1805.28 19.4328 M1805.28 6.81709 L1810.6 6.81709 L1810.6 13.559 L1805.28 13.559 L1805.28 6.81709 Z" fill="#000000" fill-rule="nonzero" fill-opacity="1" /><path clip-path="url(#clip120)" d="M1834.3 23.1654 Q1830.02 23.1654 1827.53 26.5218 Q1825.04 29.8494 1825.04 35.6653 Q1825.04 41.4813 1827.5 44.8377 Q1829.99 48.1653 1834.3 48.1653 Q1838.55 48.1653 1841.04 44.8088 Q1843.53 41.4523 1843.53 35.6653 Q1843.53 29.9072 1841.04 26.5508 Q1838.55 23.1654 1834.3 23.1654 M1834.3 18.6515 Q1841.24 18.6515 1845.21 23.1654 Q1849.17 27.6792 1849.17 35.6653 Q1849.17 43.6225 1845.21 48.1653 Q1841.24 52.6791 1834.3 52.6791 Q1827.32 52.6791 1823.36 48.1653 Q1819.43 43.6225 1819.43 35.6653 Q1819.43 27.6792 1823.36 23.1654 Q1827.32 18.6515 1834.3 18.6515 Z" fill="#000000" fill-rule="nonzero" fill-opacity="1" /><path clip-path="url(#clip120)" d="M1884.93 32.2799 L1884.93 51.84 L1879.61 51.84 L1879.61 32.4535 Q1879.61 27.8529 1877.82 25.567 Q1876.02 23.2811 1872.43 23.2811 Q1868.12 23.2811 1865.63 26.03 Q1863.15 28.7788 1863.15 33.5241 L1863.15 51.84 L1857.79 51.84 L1857.79 19.4328 L1863.15 19.4328 L1863.15 24.4675 Q1865.06 21.545 1867.63 20.0983 Q1870.24 18.6515 1873.62 18.6515 Q1879.2 18.6515 1882.07 22.1237 Q1884.93 25.567 1884.93 32.2799 Z" fill="#000000" fill-rule="nonzero" fill-opacity="1" /><path clip-path="url(#clip120)" d="M1929.12 35.5496 Q1922.67 35.5496 1920.18 37.0253 Q1917.69 38.501 1917.69 42.06 Q1917.69 44.8956 1919.54 46.5738 Q1921.42 48.2231 1924.63 48.2231 Q1929.06 48.2231 1931.72 45.0981 Q1934.41 41.9442 1934.41 36.7359 L1934.41 35.5496 L1929.12 35.5496 M1939.74 33.3505 L1939.74 51.84 L1934.41 51.84 L1934.41 46.921 Q1932.59 49.8724 1929.87 51.2902 Q1927.15 52.6791 1923.22 52.6791 Q1918.24 52.6791 1915.29 49.9014 Q1912.36 47.0947 1912.36 42.4072 Q1912.36 36.9385 1916.01 34.1607 Q1919.69 31.3829 1926.95 31.3829 L1934.41 31.3829 L1934.41 30.8621 Q1934.41 27.1874 1931.98 25.1908 Q1929.58 23.1654 1925.21 23.1654 Q1922.43 23.1654 1919.8 23.8309 Q1917.17 24.4964 1914.74 25.8274 L1914.74 20.9085 Q1917.66 19.78 1920.41 19.2302 Q1923.16 18.6515 1925.76 18.6515 Q1932.79 18.6515 1936.26 22.2973 Q1939.74 25.9431 1939.74 33.3505 Z" fill="#000000" fill-rule="nonzero" fill-opacity="1" /><path clip-path="url(#clip120)" d="M1969.48 24.4096 Q1968.59 23.8888 1967.51 23.6573 Q1966.47 23.3969 1965.2 23.3969 Q1960.69 23.3969 1958.26 26.3482 Q1955.85 29.2707 1955.85 34.7683 L1955.85 51.84 L1950.5 51.84 L1950.5 19.4328 L1955.85 19.4328 L1955.85 24.4675 Q1957.53 21.5161 1960.22 20.0983 Q1962.91 18.6515 1966.76 18.6515 Q1967.31 18.6515 1967.98 18.7383 Q1968.64 18.7962 1969.45 18.9409 L1969.48 24.4096 Z" fill="#000000" fill-rule="nonzero" fill-opacity="1" /><path clip-path="url(#clip120)" d="M1997.09 20.677 L1997.09 25.6538 Q1994.83 24.4096 1992.54 23.802 Q1990.29 23.1654 1987.97 23.1654 Q1982.79 23.1654 1979.93 26.464 Q1977.06 29.7336 1977.06 35.6653 Q1977.06 41.597 1979.93 44.8956 Q1982.79 48.1653 1987.97 48.1653 Q1990.29 48.1653 1992.54 47.5576 Q1994.83 46.921 1997.09 45.6768 L1997.09 50.5958 Q1994.86 51.6375 1992.46 52.1583 Q1990.08 52.6791 1987.39 52.6791 Q1980.07 52.6791 1975.76 48.0784 Q1971.45 43.4778 1971.45 35.6653 Q1971.45 27.7371 1975.79 23.1943 Q1980.16 18.6515 1987.74 18.6515 Q1990.2 18.6515 1992.54 19.1724 Q1994.89 19.6642 1997.09 20.677 Z" fill="#000000" fill-rule="nonzero" fill-opacity="1" /><path clip-path="url(#clip120)" d="M2033.28 32.2799 L2033.28 51.84 L2027.96 51.84 L2027.96 32.4535 Q2027.96 27.8529 2026.17 25.567 Q2024.37 23.2811 2020.78 23.2811 Q2016.47 23.2811 2013.98 26.03 Q2011.5 28.7788 2011.5 33.5241 L2011.5 51.84 L2006.14 51.84 L2006.14 6.81709 L2011.5 6.81709 L2011.5 24.4675 Q2013.41 21.545 2015.98 20.0983 Q2018.58 18.6515 2021.97 18.6515 Q2027.55 18.6515 2030.42 22.1237 Q2033.28 25.567 2033.28 32.2799 Z" fill="#000000" fill-rule="nonzero" fill-opacity="1" /><path clip-path="url(#clip120)" d="M2043.9 19.4328 L2049.23 19.4328 L2049.23 51.84 L2043.9 51.84 L2043.9 19.4328 M2043.9 6.81709 L2049.23 6.81709 L2049.23 13.559 L2043.9 13.559 L2043.9 6.81709 Z" fill="#000000" fill-rule="nonzero" fill-opacity="1" /><path clip-path="url(#clip120)" d="M2065.63 10.2314 L2065.63 19.4328 L2076.6 19.4328 L2076.6 23.5705 L2065.63 23.5705 L2065.63 41.163 Q2065.63 45.1271 2066.7 46.2555 Q2067.8 47.384 2071.13 47.384 L2076.6 47.384 L2076.6 51.84 L2071.13 51.84 Q2064.97 51.84 2062.62 49.5541 Q2060.28 47.2393 2060.28 41.163 L2060.28 23.5705 L2056.37 23.5705 L2056.37 19.4328 L2060.28 19.4328 L2060.28 10.2314 L2065.63 10.2314 Z" fill="#000000" fill-rule="nonzero" fill-opacity="1" /><path clip-path="url(#clip120)" d="M2111.32 34.3054 L2111.32 36.9095 L2086.84 36.9095 Q2087.19 42.4072 2090.14 45.3007 Q2093.12 48.1653 2098.42 48.1653 Q2101.48 48.1653 2104.35 47.4129 Q2107.24 46.6606 2110.08 45.156 L2110.08 50.1907 Q2107.21 51.406 2104.2 52.0425 Q2101.19 52.6791 2098.1 52.6791 Q2090.34 52.6791 2085.8 48.1653 Q2081.29 43.6514 2081.29 35.9547 Q2081.29 27.9975 2085.57 23.339 Q2089.88 18.6515 2097.17 18.6515 Q2103.71 18.6515 2107.5 22.876 Q2111.32 27.0716 2111.32 34.3054 M2106 32.7429 Q2105.94 28.3737 2103.54 25.7695 Q2101.17 23.1654 2097.23 23.1654 Q2092.77 23.1654 2090.08 25.6827 Q2087.42 28.2001 2087.02 32.7718 L2106 32.7429 Z" fill="#000000" fill-rule="nonzero" fill-opacity="1" /><path clip-path="url(#clip120)" d="M2143.38 20.677 L2143.38 25.6538 Q2141.12 24.4096 2138.84 23.802 Q2136.58 23.1654 2134.27 23.1654 Q2129.09 23.1654 2126.22 26.464 Q2123.36 29.7336 2123.36 35.6653 Q2123.36 41.597 2126.22 44.8956 Q2129.09 48.1653 2134.27 48.1653 Q2136.58 48.1653 2138.84 47.5576 Q2141.12 46.921 2143.38 45.6768 L2143.38 50.5958 Q2141.15 51.6375 2138.75 52.1583 Q2136.38 52.6791 2133.69 52.6791 Q2126.37 52.6791 2122.06 48.0784 Q2117.75 43.4778 2117.75 35.6653 Q2117.75 27.7371 2122.09 23.1943 Q2126.45 18.6515 2134.04 18.6515 Q2136.5 18.6515 2138.84 19.1724 Q2141.18 19.6642 2143.38 20.677 Z" fill="#000000" fill-rule="nonzero" fill-opacity="1" /><path clip-path="url(#clip120)" d="M2157.91 10.2314 L2157.91 19.4328 L2168.87 19.4328 L2168.87 23.5705 L2157.91 23.5705 L2157.91 41.163 Q2157.91 45.1271 2158.98 46.2555 Q2160.08 47.384 2163.4 47.384 L2168.87 47.384 L2168.87 51.84 L2163.4 51.84 Q2157.24 51.84 2154.9 49.5541 Q2152.55 47.2393 2152.55 41.163 L2152.55 23.5705 L2148.65 23.5705 L2148.65 19.4328 L2152.55 19.4328 L2152.55 10.2314 L2157.91 10.2314 Z" fill="#000000" fill-rule="nonzero" fill-opacity="1" /><path clip-path="url(#clip120)" d="M2175.33 39.0507 L2175.33 19.4328 L2180.65 19.4328 L2180.65 38.8482 Q2180.65 43.4488 2182.44 45.7636 Q2184.24 48.0495 2187.83 48.0495 Q2192.14 48.0495 2194.63 45.3007 Q2197.14 42.5519 2197.14 37.8065 L2197.14 19.4328 L2202.47 19.4328 L2202.47 51.84 L2197.14 51.84 L2197.14 46.8632 Q2195.2 49.8145 2192.63 51.2613 Q2190.08 52.6791 2186.7 52.6791 Q2181.11 52.6791 2178.22 49.2069 Q2175.33 45.7347 2175.33 39.0507 M2188.72 18.6515 L2188.72 18.6515 Z" fill="#000000" fill-rule="nonzero" fill-opacity="1" /><path clip-path="url(#clip120)" d="M2232.21 24.4096 Q2231.32 23.8888 2230.24 23.6573 Q2229.2 23.3969 2227.93 23.3969 Q2223.42 23.3969 2220.99 26.3482 Q2218.58 29.2707 2218.58 34.7683 L2218.58 51.84 L2213.23 51.84 L2213.23 19.4328 L2218.58 19.4328 L2218.58 24.4675 Q2220.26 21.5161 2222.95 20.0983 Q2225.64 18.6515 2229.49 18.6515 Q2230.04 18.6515 2230.71 18.7383 Q2231.37 18.7962 2232.18 18.9409 L2232.21 24.4096 Z" fill="#000000" fill-rule="nonzero" fill-opacity="1" /><path clip-path="url(#clip120)" d="M2264.21 34.3054 L2264.21 36.9095 L2239.74 36.9095 Q2240.08 42.4072 2243.03 45.3007 Q2246.01 48.1653 2251.31 48.1653 Q2254.38 48.1653 2257.24 47.4129 Q2260.13 46.6606 2262.97 45.156 L2262.97 50.1907 Q2260.11 51.406 2257.1 52.0425 Q2254.09 52.6791 2250.99 52.6791 Q2243.24 52.6791 2238.69 48.1653 Q2234.18 43.6514 2234.18 35.9547 Q2234.18 27.9975 2238.46 23.339 Q2242.77 18.6515 2250.07 18.6515 Q2256.6 18.6515 2260.39 22.876 Q2264.21 27.0716 2264.21 34.3054 M2258.89 32.7429 Q2258.83 28.3737 2256.43 25.7695 Q2254.06 23.1654 2250.12 23.1654 Q2245.67 23.1654 2242.98 25.6827 Q2240.31 28.2001 2239.91 32.7718 L2258.89 32.7429 Z" fill="#000000" fill-rule="nonzero" fill-opacity="1" /><path clip-path="url(#clip121)" d="M364.131 1370.66 L364.131 1387.09 L751.621 1387.09 L751.621 1370.66 L364.131 1370.66 L364.131 1370.66  Z" fill="#4682b4" fill-rule="evenodd" fill-opacity="1"/>
<polyline clip-path="url(#clip121)" style="stroke:#000000; stroke-linecap:round; stroke-linejoin:round; stroke-width:4; stroke-opacity:1; fill:none" points="364.131,1370.66 364.131,1387.09 751.621,1387.09 751.621,1370.66 364.131,1370.66 "/>
<path clip-path="url(#clip121)" d="M848.494 984.509 L848.494 1387.09 L1235.98 1387.09 L1235.98 984.509 L848.494 984.509 L848.494 984.509  Z" fill="#ff8c00" fill-rule="evenodd" fill-opacity="1"/>
<polyline clip-path="url(#clip121)" style="stroke:#000000; stroke-linecap:round; stroke-linejoin:round; stroke-width:4; stroke-opacity:1; fill:none" points="848.494,984.509 848.494,1387.09 1235.98,1387.09 1235.98,984.509 848.494,984.509 "/>
<path clip-path="url(#clip121)" d="M1332.86 97.1921 L1332.86 1387.09 L1720.35 1387.09 L1720.35 97.1921 L1332.86 97.1921 L1332.86 97.1921  Z" fill="#008000" fill-rule="evenodd" fill-opacity="1"/>
<polyline clip-path="url(#clip121)" style="stroke:#000000; stroke-linecap:round; stroke-linejoin:round; stroke-width:4; stroke-opacity:1; fill:none" points="1332.86,97.1921 1332.86,1387.09 1720.35,1387.09 1720.35,97.1921 1332.86,97.1921 "/>
<path clip-path="url(#clip121)" d="M1817.22 639.441 L1817.22 1387.09 L2204.71 1387.09 L2204.71 639.441 L1817.22 639.441 L1817.22 639.441  Z" fill="#dc143c" fill-rule="evenodd" fill-opacity="1"/>
<polyline clip-path="url(#clip121)" style="stroke:#000000; stroke-linecap:round; stroke-linejoin:round; stroke-width:4; stroke-opacity:1; fill:none" points="1817.22,639.441 1817.22,1387.09 2204.71,1387.09 2204.71,639.441 1817.22,639.441 "/>
<path clip-path="url(#clip121)" d="M2301.58 811.975 L2301.58 1387.09 L2689.07 1387.09 L2689.07 811.975 L2301.58 811.975 L2301.58 811.975  Z" fill="#800080" fill-rule="evenodd" fill-opacity="1"/>
<polyline clip-path="url(#clip121)" style="stroke:#000000; stroke-linecap:round; stroke-linejoin:round; stroke-width:4; stroke-opacity:1; fill:none" points="2301.58,811.975 2301.58,1387.09 2689.07,1387.09 2689.07,811.975 2301.58,811.975 "/>
<circle clip-path="url(#clip121)" style="fill:#4682b4; stroke:none; fill-opacity:0" cx="557.876" cy="1370.66" r="2"/>
<circle clip-path="url(#clip121)" style="fill:#ff8c00; stroke:none; fill-opacity:0" cx="1042.24" cy="984.509" r="2"/>
<circle clip-path="url(#clip121)" style="fill:#008000; stroke:none; fill-opacity:0" cx="1526.6" cy="97.1921" r="2"/>
<circle clip-path="url(#clip121)" style="fill:#dc143c; stroke:none; fill-opacity:0" cx="2010.97" cy="639.441" r="2"/>
<circle clip-path="url(#clip121)" style="fill:#800080; stroke:none; fill-opacity:0" cx="2495.33" cy="811.975" r="2"/>
</svg>
